/* XPM */
static char *_f8e4d102f6c45c0801a6b99d6c11c0fgjydEoEqUjIb1bND[] = {
/* columns rows colors chars-per-pixel */
"32 32 2 1 ",
"  c #92AACA",
". c #C3D3E5",
/* pixels */
"                                ",
"  ............................. ",
" . ........................... .",
" .. .........................  .",
" ... .......................   .",
" .... .....................    .",
" ..... ...................     .",
" ......                        .",
" ......  . . . . . . . ..      .",
" ...... . . . . . . . . .      .",
" ......  . . . . . . . ..      .",
" ...... . . . . . . . . .      .",
" ......  . . . . . . . ..      .",
" ...... . . . . . . . . .      .",
" ......  . . . . . . . ..      .",
" ...... . . . . . . . . .      .",
" ......  . . . . . . . ..      .",
" ...... . . . . . . . . .      .",
" ......  . . . . . . . ..      .",
" ...... . . . . . . . . .      .",
" ......  . . . . . . . ..      .",
" ...... . . . . . . . . .      .",
" ......  . . . . . . . ..      .",
" ...... . . . . . . . . .      .",
" ...... .................      .",
" ......                  .     .",
" .....                    .    .",
" ....                      .   .",
" ...                        .  .",
" ..                          . .",
" .                            ..",
"  ............................. "
};
