/* XPM */
static char *_b5592cf477f403bd92c1a579f0fba43BAt8PwONEcpYlzRz[] = {
/* columns rows colors chars-per-pixel */
"32 32 19 1 ",
"  c None",
". c #C7CFDD",
"X c #92A1B9",
"o c #100515",
"O c #E69C69",
"+ c #F6CA9F",
"@ c #131313",
"# c white",
"$ c #B4B4B4",
"% c gray52",
"& c #1A1932",
"* c #424C6E",
"= c #2A2F4E",
"- c #0E071B",
"; c #5D2C28",
": c #391F21",
"> c #571C27",
", c #BF6F4A",
"< c black",
/* pixels */
"              ..                ",
"              X.oXX..           ",
"              XoXX....          ",
"               XXXOOOO .        ",
"              .XXOX.+X.         ",
"            ..XXOO@@+@          ",
"          ...XXXXOOO+O          ",
"         ...X XXX.O...          ",
"        ...X  #$XX.XXX.         ",
"       ....X ###$XXX..X         ",
"       ...X  ####$XXX.X         ",
"      ...X  ####$#$XXXX         ",
"      ..X   ###$%$#$XX&&        ",
"      XX    ##$%%%$%*=&&        ",
"       X   ###$%%$%**=&&&       ",
"           ###$%$$%*==&&&       ",
"           ##$ %%%**==&&&       ",
"           ##$ *--*===&&&       ",
"            #$X--------&&&      ",
"            ;:X--===&&&:::      ",
"            ;:XXX===&&&:::      ",
"            +OO>====&&& ,,      ",
"            ++O=**=&&&&&,,      ",
"           >>>=***=&&&&&        ",
"          >>>==**==&&&&&        ",
"         >>>===**=&&&&&&        ",
"        >>> ==***=&&&&&&        ",
"       >>>  ==**==&&&&&         ",
"      >>     ==== &&&&&         ",
"             ;;:   ::&          ",
"             ;;:   ::           ",
"            ;;:    :::          "
};
