/* XPM */
static char * space_up_xpm[] = {
"32 32 243 2",
"  	c None",
". 	c #393737",
"+ 	c #3A3737",
"@ 	c #252323",
"# 	c #262424",
"$ 	c #5A5555",
"% 	c #656060",
"& 	c #676161",
"* 	c #666161",
"= 	c #5C5757",
"- 	c #2B2828",
"; 	c #413E3E",
"> 	c #585555",
", 	c #6B6767",
"' 	c #9D9999",
") 	c #9F9B9B",
"! 	c #9E9A9A",
"~ 	c #7D7878",
"{ 	c #7A7575",
"] 	c #6F6969",
"^ 	c #4F4B4B",
"/ 	c #322F2F",
"( 	c #3C3939",
"_ 	c #4C4949",
": 	c #676363",
"< 	c #8A8787",
"[ 	c #A39F9F",
"} 	c #B3ADAD",
"| 	c #948F8F",
"1 	c #797474",
"2 	c #615C5C",
"3 	c #423F3F",
"4 	c #312E2E",
"5 	c #534F4F",
"6 	c #7F7B7B",
"7 	c #989494",
"8 	c #9B9797",
"9 	c #A8A3A3",
"0 	c #C1B9B9",
"a 	c #D5D6D9",
"b 	c #D6D7DA",
"c 	c #B3B1B2",
"d 	c #8D8888",
"e 	c #767070",
"f 	c #6C6666",
"g 	c #585353",
"h 	c #333030",
"i 	c #3E3B3B",
"j 	c #514D4D",
"k 	c #8A8686",
"l 	c #A29E9E",
"m 	c #A6A2A2",
"n 	c #B5B0B0",
"o 	c #CCCACB",
"p 	c #DADCDF",
"q 	c #DADDE0",
"r 	c #D0CFD1",
"s 	c #A6A3A3",
"t 	c #7D7777",
"u 	c #706A6A",
"v 	c #676262",
"w 	c #4D4949",
"x 	c #4C4848",
"y 	c #565252",
"z 	c #848080",
"A 	c #9C9898",
"B 	c #A39E9E",
"C 	c #ADA7A8",
"D 	c #C6C1C2",
"E 	c #C7C5C6",
"F 	c #A9A4A4",
"G 	c #8A8585",
"H 	c #726C6C",
"I 	c #666060",
"J 	c #545050",
"K 	c #6B6666",
"L 	c #959090",
"M 	c #B9B4B5",
"N 	c #CFCDCF",
"O 	c #C0C0C2",
"P 	c #938F8F",
"Q 	c #3B3838",
"R 	c #B2ACAC",
"S 	c #CBC7C9",
"T 	c #C0C0C1",
"U 	c #908C8C",
"V 	c #575353",
"W 	c #CAC8CA",
"X 	c #B1ACAC",
"Y 	c #4E4A4A",
"Z 	c #C6C1C1",
"` 	c #B4B1B2",
" .	c #504C4C",
"..	c #8D8989",
"+.	c #A19D9D",
"@.	c #A5A0A0",
"#.	c #A09C9C",
"$.	c #8C8888",
"%.	c #666262",
"&.	c #4D4A4A",
"*.	c #474444",
"=.	c #484545",
"-.	c #524F4F",
";.	c #403D3D",
">.	c #353232",
",.	c #4A4646",
"'.	c #272525",
").	c #434040",
"!.	c #4F4C4C",
"~.	c #383535",
"{.	c #444141",
"].	c #3F3C3C",
"^.	c #474343",
"/.	c #444040",
"(.	c #2E2C2C",
"_.	c #3D3A3A",
":.	c #312F2F",
"<.	c #595555",
"[.	c #4A4747",
"}.	c #363434",
"|.	c #2D2A2A",
"1.	c #363333",
"2.	c #5A5656",
"3.	c #302D2D",
"4.	c #524E4E",
"5.	c #7B7676",
"6.	c #898585",
"7.	c #7A7676",
"8.	c #605B5B",
"9.	c #1D1C1C",
"0.	c #1C1A1A",
"a.	c #6A6565",
"b.	c #B1B2B5",
"c.	c #CFD1D4",
"d.	c #A4A1A2",
"e.	c #868282",
"f.	c #2E2B2B",
"g.	c #282727",
"h.	c #959191",
"i.	c #9E9C9C",
"j.	c #9E9C9D",
"k.	c #A09D9D",
"l.	c #8B8888",
"m.	c #BDBFC2",
"n.	c #C4C6C8",
"o.	c #827F7F",
"p.	c #0D0C0C",
"q.	c #2C2A2A",
"r.	c #D9DBDE",
"s.	c #B4B5B8",
"t.	c #4B4747",
"u.	c #BCBEC1",
"v.	c #D8DBDE",
"w.	c #C3C4C6",
"x.	c #B4B5B7",
"y.	c #938E8E",
"z.	c #8E8A8A",
"A.	c #8B8686",
"B.	c #868181",
"C.	c #767373",
"D.	c #6C6A6B",
"E.	c #8C8D8F",
"F.	c #B8B8B9",
"G.	c #D9DCDF",
"H.	c #A09FA0",
"I.	c #858282",
"J.	c #696767",
"K.	c #656262",
"L.	c #B1B1B3",
"M.	c #C9CACC",
"N.	c #AEAEAF",
"O.	c #6F6B6B",
"P.	c #484444",
"Q.	c #3C3838",
"R.	c #5B5959",
"S.	c #B8B7B9",
"T.	c #949292",
"U.	c #525050",
"V.	c #151414",
"W.	c #B8B7B8",
"X.	c #5A5858",
"Y.	c #535151",
"Z.	c #686565",
"`.	c #5D5A5A",
" +	c #393636",
".+	c #1F1E1E",
"++	c #494545",
"@+	c #502D29",
"#+	c #803021",
"$+	c #863421",
"%+	c #523533",
"&+	c #464343",
"*+	c #373332",
"=+	c #413937",
"-+	c #433937",
";+	c #4E312F",
">+	c #680C07",
",+	c #741A07",
"'+	c #670B07",
")+	c #4D3230",
"!+	c #403837",
"~+	c #363232",
"{+	c #180A01",
"]+	c #190A01",
"^+	c #200901",
"/+	c #3A0904",
"(+	c #5B0F0F",
"_+	c #372422",
":+	c #622323",
"<+	c #3F2322",
"[+	c #2F2421",
"}+	c #211814",
"|+	c #190D05",
"1+	c #2A0E09",
"2+	c #620707",
"3+	c #3B0803",
"4+	c #252424",
"5+	c #130801",
"6+	c #200D02",
"7+	c #2B1203",
"8+	c #2B1304",
"9+	c #2A1306",
"0+	c #2A170F",
"a+	c #382B26",
"b+	c #382A26",
"c+	c #2E1E18",
"d+	c #2A1408",
"e+	c #372A26",
"f+	c #29160C",
"g+	c #2B1305",
"h+	c #1D0C02",
"i+	c #15100D",
"j+	c #232222",
"k+	c #383636",
"l+	c #131313",
"m+	c #1F1D1E",
"n+	c #140E0B",
"o+	c #150D07",
"p+	c #231F1E",
"q+	c #373535",
"r+	c #292727",
"s+	c #1F1B19",
"t+	c #150C06",
"                        . + + + + + + + +                       ",
"                @ @ # $ % & & & & & & & * = - @ #               ",
"              ; > , , ' ) ) ) ) ) ) ) ) ! ~ { ] ^ / #           ",
"          ( _ : < [ } } } } } } } } } } } } } | 1 2 3 #         ",
"      4 5 6 7 8 [ 9 0 a b b b b b b b b b b b c d e f g h #     ",
"    i j k l l m n o o p q q q q q q q q q q q q r s t u v w     ",
"@ x y z A l B C D q q q q q q q q q q q q q q q q E F G H I #   ",
"@ J K L l 9 M N q q q q q q q q q q q q q q q q q q O l P 2 Q # ",
"@ J K L l R S q q q q q q q q q q q q q q q q q q q T l U V J @ ",
"@ J K L l R S q q q q q q q q q q q q q q q q q q q T l U V J @ ",
"@ J K L l R S q q q q q q q q q q q q q q q q q q q O l U V J @ ",
"@ J K L l R S q q q q q q q q q q q q q q q q q q W X l U y Y # ",
"@ J K L l R Z N N N N N N N N N N N N N N N N N N ` l l U  .# # ",
"@ J = ..' +.@.@.@.@.@.@.@.@.@.@.@.@.@.@.@.@.@.@.@.#.' $.%.&.#   ",
"@ *.=.-.V V V V V V V V V V V V V V V V V V V V V V V j ;.# #   ",
"    # >.w V V V V V V V V V V V V V V V V V V V V V ,.h #       ",
"        '.).V V V V V V V V V V V V V V V V V V !.~.#           ",
"        ;.{.].^.V V V V V V V V V V V V V V V /.(.i _.          ",
"    # :. .<.[.}.+ + + |.x !.!.!.!.!.!.x |.+ + 1.w 2.x 3.#       ",
"  # ;.4.5.6.7.% 8._.i 9.0.0.0.0.0.0.0.0.9.i _.8.% f a.$ _.#     ",
"  #  .b.c.O d.e.f.g.h.i.j.j.j.j.j.j.j.j.i.h.g.f.e.k.d.l.x #     ",
"  #  .m.q q n.o.p.q.l r.q q q q q q q q r.l q.p.o.n.q s.x #     ",
"# t.<.u.v.v.w.o.p.q.l r.q r.v.v.v.v.r.q r.l q.p.o.n.q x.J *.#   ",
"@ J 6.y.z.A.B.C.D.E.F.G.q H.I.I.I.I.H.q r.l J.K.C.L.M.N.O. .#   ",
"# Q P.,.,.,.Q.R.s S.S.S.S.T.U.V.V.U.T.S.W.l l l X.Y.Z.Z.`. +#   ",
".+++J y y y ,.@+#+$+$+$+#+%+h *.*.h %+#+$+$+$+#+@+,.y y 5 &+#   ",
"  .+*+=+-+-+-+;+>+,+,+,+'+)+-+-+-+-+)+'+,+,+,+>+;+-+-+!+~+#     ",
"      {+]+]+]+^+/+(+_+:+<+[+}+|+|+}+[+<+:+1+2+3+^+]+]+{+        ",
"                  4+V V V V +     + V V y .+                    ",
"        5+6+7+8+9+0+a+b+b+b+c+d+d+c+b+b+e+f+g+8+7+h+            ",
"            i+j+k+k+k+k+k+k+# l+l+# k+k+k+k+ +m+n+              ",
"            o+p+q+q+q+q+q+q+r+    r+q+q+q+q+q+s+t+              "};
