/* XPM */
static char * space_left_xpm[] = {
"32 32 311 2",
"  	c None",
". 	c #262424",
"+ 	c #2F2D2D",
"@ 	c #393636",
"# 	c #444141",
"$ 	c #474444",
"% 	c #4E4B4B",
"& 	c #575353",
"* 	c #454242",
"= 	c #252323",
"- 	c #282626",
"; 	c #323030",
"> 	c #524E4E",
", 	c #656161",
"' 	c #676464",
") 	c #6C6868",
"! 	c #777272",
"~ 	c #646060",
"{ 	c #5B5757",
"] 	c #5A5656",
"^ 	c #565252",
"/ 	c #302D2D",
"( 	c #454141",
"_ 	c #585454",
": 	c #7E7A7A",
"< 	c #B7B6B8",
"[ 	c #BEBDBF",
"} 	c #B0B0B2",
"| 	c #AAAAAC",
"1 	c #9A999A",
"2 	c #625D5D",
"3 	c #272525",
"4 	c #3B3838",
"5 	c #514E4E",
"6 	c #646161",
"7 	c #969293",
"8 	c #CCCED0",
"9 	c #D6D9DC",
"0 	c #9C9EA0",
"a 	c #78797B",
"b 	c #C2C5C8",
"c 	c #D8DBDE",
"d 	c #D9DCDF",
"e 	c #D4D7DA",
"f 	c #BCBDC0",
"g 	c #6D6869",
"h 	c #6C6666",
"i 	c #5B5656",
"j 	c #514D4D",
"k 	c #4C4949",
"l 	c #8C898A",
"m 	c #BBBBBC",
"n 	c #DADDE0",
"o 	c #BABCBF",
"p 	c #494A4C",
"q 	c #020202",
"r 	c #000000",
"s 	c #070606",
"t 	c #0F0E0E",
"u 	c #050505",
"v 	c #060707",
"w 	c #7D7F81",
"x 	c #B9BBBE",
"y 	c #BEC0C3",
"z 	c #B7B6B7",
"A 	c #7C7878",
"B 	c #5F5A5A",
"C 	c #4D4949",
"D 	c #949395",
"E 	c #D2D5D8",
"F 	c #8F9193",
"G 	c #0E0E0F",
"H 	c #131212",
"I 	c #181717",
"J 	c #1C1B1B",
"K 	c #212020",
"L 	c #201F1F",
"M 	c #121212",
"N 	c #030303",
"O 	c #565353",
"P 	c #6E6B6B",
"Q 	c #373839",
"R 	c #929496",
"S 	c #858182",
"T 	c #696464",
"U 	c #5E5A5A",
"V 	c #534F4F",
"W 	c #464343",
"X 	c #4F4C4C",
"Y 	c #757374",
"Z 	c #A2A3A5",
"` 	c #AFB2B4",
" .	c #494A4B",
"..	c #070707",
"+.	c #090808",
"@.	c #1D1C1C",
"#.	c #393838",
"$.	c #656262",
"%.	c #827F7F",
"&.	c #3D3B3B",
"*.	c #757272",
"=.	c #737070",
"-.	c #373636",
";.	c #080707",
">.	c #181819",
",.	c #C6C9CC",
"'.	c #D0D3D6",
").	c #959395",
"!.	c #635E5E",
"~.	c #918D8D",
"{.	c #C5C5C7",
"].	c #AAACAF",
"^.	c #161616",
"/.	c #5C5A5A",
"(.	c #777474",
"_.	c #686565",
":.	c #6A6868",
"<.	c #797676",
"[.	c #565454",
"}.	c #1E1D1D",
"|.	c #CCCFD2",
"1.	c #999799",
"2.	c #0E0E0E",
"3.	c #2E2D2D",
"4.	c #7A7777",
"5.	c #706D6D",
"6.	c #3F3E3E",
"7.	c #252424",
"8.	c #8B8787",
"9.	c #625F5F",
"0.	c #383636",
"a.	c #282727",
"b.	c #585555",
"c.	c #838080",
"d.	c #AAADAF",
"e.	c #100F0F",
"f.	c #232222",
"g.	c #646262",
"h.	c #4A4848",
"i.	c #343333",
"j.	c #878484",
"k.	c #514F4F",
"l.	c #ABADB0",
"m.	c #1B1A1A",
"n.	c #3B3939",
"o.	c #848181",
"p.	c #686666",
"q.	c #575555",
"r.	c #7C7979",
"s.	c #1F1E1E",
"t.	c #726F6F",
"u.	c #4F4D4D",
"v.	c #524F4F",
"w.	c #4C4848",
"x.	c #908C8C",
"y.	c #ABAEB0",
"z.	c #484949",
"A.	c #717274",
"B.	c #302E2E",
"C.	c #020101",
"D.	c #403E3E",
"E.	c #767373",
"F.	c #353434",
"G.	c #222121",
"H.	c #858282",
"I.	c #484545",
"J.	c #2D2B2B",
"K.	c #2E2C2C",
"L.	c #6A6767",
"M.	c #B9BABD",
"N.	c #ABADAF",
"O.	c #161515",
"P.	c #131313",
"Q.	c #6D6A6A",
"R.	c #787575",
"S.	c #555353",
"T.	c #373535",
"U.	c #2C2B2B",
"V.	c #101111",
"W.	c #9D9FA1",
"X.	c #AEAFB1",
"Y.	c #817E7F",
"Z.	c #5D5959",
"`.	c #8B898A",
" +	c #B7B7B9",
".+	c #A7A9AB",
"++	c #373838",
"@+	c #1A1919",
"#+	c #504E4E",
"$+	c #363535",
"%+	c #555252",
"&+	c #050404",
"*+	c #1D1E1F",
"=+	c #5C5D5F",
"-+	c #BEC0C2",
";+	c #918F90",
">+	c #666262",
",+	c #595555",
"'+	c #938F8F",
")+	c #AEACAD",
"!+	c #C2C3C5",
"~+	c #87898B",
"{+	c #0C0D0D",
"]+	c #141313",
"^+	c #191818",
"/+	c #171616",
"(+	c #9B9C9E",
"_+	c #B5B6B8",
":+	c #666060",
"<+	c #4E4A4A",
"[+	c #3C3939",
"}+	c #5A5757",
"|+	c #696666",
"1+	c #787676",
"2+	c #B9B8BA",
"3+	c #B4B7B9",
"4+	c #454748",
"5+	c #8B8D8F",
"6+	c #A8AAAC",
"7+	c #8A8A8B",
"8+	c #605B5B",
"9+	c #343131",
"0+	c #211F20",
"a+	c #0D0C0D",
"b+	c #2B2929",
"c+	c #383535",
"d+	c #454546",
"e+	c #8C8989",
"f+	c #8E8A8A",
"g+	c #777475",
"h+	c #595657",
"i+	c #4F4B4B",
"j+	c #363434",
"k+	c #8C8888",
"l+	c #5B5959",
"m+	c #3C3B3B",
"n+	c #393737",
"o+	c #434040",
"p+	c #353232",
"q+	c #716E6E",
"r+	c #979393",
"s+	c #A29E9E",
"t+	c #A2A0A1",
"u+	c #8A8C8E",
"v+	c #292727",
"w+	c #3D3A3A",
"x+	c #605C5C",
"y+	c #504C4C",
"z+	c #797575",
"A+	c #9F9B9B",
"B+	c #9B9797",
"C+	c #5F5C5C",
"D+	c #504D4D",
"E+	c #BDBCBE",
"F+	c #BBBEC0",
"G+	c #403D3D",
"H+	c #4B4848",
"I+	c #555151",
"J+	c #7B7676",
"K+	c #868181",
"L+	c #676363",
"M+	c #736F6F",
"N+	c #A19D9D",
"O+	c #969292",
"P+	c #BAB9BB",
"Q+	c #CACBCD",
"R+	c #A8A5A5",
"S+	c #8F8B8B",
"T+	c #807D7D",
"U+	c #625E5E",
"V+	c #939090",
"W+	c #2A2828",
"X+	c #ABA8A9",
"Y+	c #343232",
"Z+	c #423F3F",
"`+	c #817D7D",
" @	c #727171",
".@	c #7A7A7B",
"+@	c #6A6667",
"@@	c #595656",
"#@	c #3E3B3B",
"$@	c #2C2A2A",
"%@	c #484444",
"&@	c #3F3C3C",
"*@	c #4A4747",
"=@	c #333030",
"-@	c #666363",
";@	c #969597",
">@	c #959799",
",@	c #6B6868",
"'@	c #4D1A1A",
")@	c #661C0C",
"!@	c #651805",
"~@	c #5D1005",
"{@	c #702005",
"]@	c #353333",
"^@	c #494646",
"/@	c #827E7E",
"(@	c #716D6D",
"_@	c #2E2A2A",
":@	c #4F1A19",
"<@	c #660907",
"[@	c #888484",
"}@	c #5F5B5B",
"|@	c #989595",
"1@	c #999595",
"2@	c #2F2C2C",
"3@	c #494545",
"4@	c #888585",
"5@	c #545151",
"6@	c #2D1303",
"                    . . + @ @ @ @ @ @ + .                       ",
"              . . # $ $ % & & & & & & % $ $ * = .               ",
"            - ; > , ' ' ' ) ! ! ! ! ~ { { ] ^ > ; -             ",
"        . / ( _ : < [ [ [ [ [ [ [ [ } | | 1 2 & & ( / .         ",
"    . 3 4 5 6 7 8 9 0 a a a a a a a b c d e f g h i j 4 3 .     ",
"    @ k , l m n o p q r s t t t t q u v w x y d z A B & k @     ",
"  . C & D 8 E F G r H I J K L K M N r r O P Q R n S T U & V W = ",
"= X ~ Y Z `  ...+.@.L K #.$.%.r r r &.*.=.-.;.>.,.'.).!.& & > = ",
"= > ~.{.].s ^.K K K K /.(._.r r r :.<.[.K K }.r r |.1.!.& & > = ",
"= > ~.{.].2.K K K 3.4.5.6.r s 7.8.9.0.K a.b.c.r r |.1.!.& & > = ",
"= > ~.{.d.e.K f.g.c.h.r r i._.j.= K K k.*.=.r r r |.1.!.& & > = ",
"= > ~.{.l.m.n.o.p.7.r r q.r.g.L K s.t.*.u.r r r r |.1.!.& & v.= ",
". w.x.{.y.z.A.B.C.r D.E.t.F.K G.k.H.b.}.r r r r r |.1.!.I.J.K.  ",
". . L.M.N.O.P.r r Q.R.S.K K T.(.(.U.r r r r r V.W.X.Y.Z.$ .     ",
"    . `. +.+++N @+#+$+K K K U.%+&+r r r r *+=+-+;+>+,+^ W .     ",
"      t.'+)+!+~+{+r ]+^+^+^+/+r r r r r =+(+_+:+& & <+[+        ",
"        }+|+1+2+3+4+r r r r r r r r r 5+6+7+8+& 9+9+0+a+r       ",
"          b+c+# d+H.e+e+f+x.x.x.x.x.x.g+h+i+k j+k+l+#+#+m+r     ",
"          n+& & ( # # # # o+o+o+o+o+o+p+[.4.E.^ . q+r+s+t+u+r   ",
"        v+w+_ x+& & ,+,+& V V V V V j y+z+A+B+C+D+K.k+s+E+F+r   ",
"      . G+& >+s+H+I+J+K+K+K+K+K+K+K+L+X i+M+s+N+,+B.=.O+E+F+r   ",
"      . G+& $.N+b+> ~.P+Q+Q+Q+Q+Q+R+M+G+G+M+s+s+S+_ 9+T+E+F+r   ",
"      . G+& U+V+W+> ~.{.n n n n n X+M+G+G+M+s+s+s+$.n+T+E+F+r   ",
"      . Y+Z+Z+Z+. > ~.{.n n n n n X+M+G+G+$.`+`+`+U n+T+E+F+r   ",
"      . w+j j D+3 i+U+ @.@.@.@.@.@+@@@#@+ @ @ @ @ @ $@T+E+F+r   ",
"      . T.I.I.%@3 [+&@&@&@&@&@&@&@&@&@; G+& & & & *@=@-@;@>@r   ",
"                = > %.x.x.x.x.x.x.x.,@G+B.4 4 4 4 v+'@)@!@~@{@  ",
"                = > W ]@^@R.s+s+s+s+/@(@(@(@(@5.& w+_@:@    <@  ",
"                = > & G+q+s+s+s+s+s+s+s+s+s+s+s+[@}@n+          ",
"                . <+v.#@,@|@|@|@|@|@|@|@|@|@1@B+s+$.n+          ",
"                . . . . . = = = = = = j+j+= 2@3@4@5@j+          ",
"                                      j+j+      @             6@"};
