/* XPM */
static char * space_down_xpm[] = {
"32 32 319 2",
"  	c None",
". 	c #393737",
"+ 	c #3A3737",
"@ 	c #252323",
"# 	c #262424",
"$ 	c #5A5555",
"% 	c #656060",
"& 	c #676161",
"* 	c #666161",
"= 	c #5C5757",
"- 	c #2B2828",
"; 	c #514C4C",
"> 	c #6F6969",
", 	c #7B7676",
"' 	c #8D8B8C",
") 	c #ACAAAB",
"! 	c #ADABAC",
"~ 	c #7D7878",
"{ 	c #7A7575",
"] 	c #4F4B4B",
"^ 	c #322F2F",
"/ 	c #494545",
"( 	c #615C5C",
"_ 	c #797474",
": 	c #989495",
"< 	c #C4C4C6",
"[ 	c #DADDE0",
"} 	c #D9DCDF",
"| 	c #C2C2C4",
"1 	c #423F3F",
"2 	c #393636",
"3 	c #878282",
"4 	c #9E9B9B",
"5 	c #B2B1B3",
"6 	c #D3D5D8",
"7 	c #CDD0D2",
"8 	c #CDD0D3",
"9 	c #78797B",
"0 	c #626465",
"a 	c #B4B2B4",
"b 	c #908D8E",
"c 	c #787374",
"d 	c #6C6666",
"e 	c #585353",
"f 	c #333030",
"g 	c #4D4949",
"h 	c #676262",
"i 	c #908C8C",
"j 	c #A29E9E",
"k 	c #BAB9BA",
"l 	c #D3D6D9",
"m 	c #A4A7A9",
"n 	c #000000",
"o 	c #111010",
"p 	c #131313",
"q 	c #141313",
"r 	c #100F0F",
"s 	c #ADACAE",
"t 	c #7D7777",
"u 	c #706A6A",
"v 	c #4C4848",
"w 	c #6A6464",
"x 	c #8C8888",
"y 	c #9F9B9C",
"z 	c #BAB9BB",
"A 	c #D1D3D5",
"B 	c #C1C4C7",
"C 	c #6C6E70",
"D 	c #030303",
"E 	c #1B1A1A",
"F 	c #201F1F",
"G 	c #212020",
"H 	c #010101",
"I 	c #B5B4B6",
"J 	c #8C8787",
"K 	c #726C6C",
"L 	c #666060",
"M 	c #545050",
"N 	c #6B6666",
"O 	c #959090",
"P 	c #C6C6C9",
"Q 	c #B1B3B6",
"R 	c #121111",
"S 	c #514F4F",
"T 	c #504E4E",
"U 	c #0E0D0D",
"V 	c #646161",
"W 	c #1D1D1D",
"X 	c #C6C7C9",
"Y 	c #686262",
"Z 	c #3B3838",
"` 	c #C6C6C8",
" .	c #B8BBBD",
"..	c #6D6F70",
"+.	c #090909",
"@.	c #706E6E",
"#.	c #757272",
"$.	c #4B4949",
"%.	c #312F2F",
"&.	c #858282",
"*.	c #676565",
"=.	c #292828",
"-.	c #A2A5A7",
";.	c #565454",
">.	c #807D7D",
",.	c #585555",
"'.	c #323131",
").	c #666464",
"!.	c #838080",
"~.	c #2E2C2C",
"{.	c #545252",
"].	c #302F2F",
"^.	c #0E0E0E",
"/.	c #7D7A7A",
"(.	c #716E6E",
"_.	c #373636",
":.	c #555353",
"<.	c #797676",
"[.	c #646262",
"}.	c #1F1E1E",
"|.	c #7C7979",
"1.	c #3B3A3A",
"2.	c #2C2B2B",
"3.	c #535151",
"4.	c #8A8686",
"5.	c #424040",
"6.	c #131212",
"7.	c #3A3838",
"8.	c #726F6F",
"9.	c #3C3A3A",
"0.	c #2A2929",
"a.	c #454343",
"b.	c #161616",
"c.	c #6A6565",
"d.	c #4E4A4A",
"e.	c #111111",
"f.	c #3C3B3B",
"g.	c #777474",
"h.	c #656262",
"i.	c #787575",
"j.	c #575555",
"k.	c #434141",
"l.	c #767373",
"m.	c #020202",
"n.	c #909092",
"o.	c #B6B5B6",
"p.	c #514D4D",
"q.	c #6B6565",
"r.	c #928E8E",
"s.	c #A5A7A9",
"t.	c #363738",
"u.	c #050505",
"v.	c #0C0B0B",
"w.	c #0B0A0A",
"x.	c #827E7E",
"y.	c #656363",
"z.	c #585656",
"A.	c #7F7C7C",
"B.	c #4A4848",
"C.	c #252424",
"D.	c #7A7676",
"E.	c #787373",
"F.	c #625D5D",
"G.	c #544F4F",
"H.	c #84807F",
"I.	c #AEACAD",
"J.	c #A1A2A4",
"K.	c #181717",
"L.	c #181818",
"M.	c #757171",
"N.	c #817C7C",
"O.	c #3F3B3B",
"P.	c #797373",
"Q.	c #858080",
"R.	c #0D0D0D",
"S.	c #141515",
"T.	c #5D5858",
"U.	c #3C3939",
"V.	c #272525",
"W.	c #4A4646",
"X.	c #999494",
"Y.	c #A9A6A7",
"Z.	c #CBCDCF",
"`.	c #D9DCDE",
" +	c #CACBCE",
".+	c #CACCCE",
"++	c #9F9C9D",
"@+	c #736E6E",
"#+	c #444141",
"$+	c #504C4C",
"%+	c #484444",
"&+	c #383535",
"*+	c #625E5E",
"=+	c #898484",
"-+	c #A5A4A6",
";+	c #A4A4A6",
">+	c #B8B8B9",
",+	c #BBBABC",
"'+	c #B9B9BA",
")+	c #5A5656",
"!+	c #343232",
"~+	c #3E3B3B",
"{+	c #3D3A3A",
"]+	c #5E5959",
"^+	c #3E3A3A",
"/+	c #3D3B3B",
"(+	c #373434",
"_+	c #302D2D",
":+	c #403D3D",
"<+	c #524E4E",
"[+	c #8D8888",
"}+	c #837E7E",
"|+	c #6D6767",
"1+	c #645F5F",
"2+	c #575353",
"3+	c #454242",
"4+	c #454141",
"5+	c #464343",
"6+	c #B1B2B5",
"7+	c #CFD1D4",
"8+	c #C0C0C2",
"9+	c #A8A5A6",
"0+	c #A09D9D",
"a+	c #8F8A8A",
"b+	c #756F6F",
"c+	c #746F6F",
"d+	c #6E6969",
"e+	c #5B5656",
"f+	c #787272",
"g+	c #8F8B8B",
"h+	c #949090",
"i+	c #A4A1A2",
"j+	c #8B8888",
"k+	c #BDBFC2",
"l+	c #C1C3C5",
"m+	c #5C5858",
"n+	c #BDBDBF",
"o+	c #BDBDBE",
"p+	c #AEAEB0",
"q+	c #A9A9AA",
"r+	c #5B5858",
"s+	c #B4B5B8",
"t+	c #4B4747",
"u+	c #595555",
"v+	c #BCBEC1",
"w+	c #D8DBDE",
"x+	c #BBBEC0",
"y+	c #353232",
"z+	c #6B6868",
"A+	c #BDC0C2",
"B+	c #B4B5B7",
"C+	c #474444",
"D+	c #898585",
"E+	c #938E8E",
"F+	c #8E8A8A",
"G+	c #8B8686",
"H+	c #797575",
"I+	c #323030",
"J+	c #615E5E",
"K+	c #BABCBE",
"L+	c #AEAFB1",
"M+	c #C9CACC",
"N+	c #AEAEAF",
"O+	c #6F6B6B",
"P+	c #2A2828",
"Q+	c #5B5959",
"R+	c #686565",
"S+	c #5D5A5A",
"T+	c #565252",
"U+	c #575454",
"V+	c #706C6C",
"W+	c #2A2727",
"X+	c #333131",
"Y+	c #4E4B4B",
"Z+	c #534F4F",
"`+	c #3F3C3C",
" @	c #7F7B7B",
".@	c #A19D9D",
"+@	c #9E9A9A",
"@@	c #7D7979",
"#@	c #413E3E",
"$@	c #160E09",
"%@	c #241208",
"&@	c #281308",
"*@	c #25160F",
"=@	c #201E1E",
"-@	c #2F2D2D",
";@	c #A09C9C",
">@	c #6D6969",
",@	c #241914",
"'@	c #9B9797",
")@	c #555151",
"!@	c #2B2A2A",
"~@	c #29160D",
"{@	c #29140A",
"]@	c #23130A",
"^@	c #18110D",
"/@	c #130801",
"(@	c #17100D",
"_@	c #1B1716",
":@	c #150C05",
"<@	c #555252",
"[@	c #969292",
"}@	c #5F5B5B",
"|@	c #2D2B2B",
"1@	c #150901",
"2@	c #1F0D02",
"3@	c #231610",
"4@	c #363333",
"5@	c #7E7A7A",
"6@	c #221712",
"7@	c #7C7878",
"8@	c #2B2929",
"9@	c #22120B",
"0@	c #1D0C02",
"a@	c #615F5F",
"b@	c #444242",
"c@	c #292727",
"d@	c #1C1A19",
"                        . + + + + + + + +                       ",
"                @ @ # $ % & & & & & & & * = - @ #               ",
"              ; > , ' ) ! ! ! ! ! ! ! ! ) ~ { > ] ^ #           ",
"          / ( _ : < [ [ [ [ [ [ [ [ [ [ } | | : _ ( 1 #         ",
"      2 ( 3 4 5 6 } 7 8 9 0 0 0 0 0 0 9 8 7 } a b c d e f #     ",
"    g h i j k [ l m n n o p q q q q r n n n m l [ s t u h g     ",
"@ v w x y z A B C n D E F G G G G G E H H H n C B A I J K L #   ",
"@ M N O P [ Q n D R G G G G G S T p H H U V W D n Q [ X O Y Z # ",
"@ M N O `  ...n +.G G G G F @.#.$.H n %.&.*.=.+.n .. .` O N M @ ",
"@ M N O ` -.n U F G G F ;.>.,.p H '.).!.~.G G {.].n -.` O N M @ ",
"@ M N O ` -.n ^.G G G /.(._.H n :.<.[.G G }.|.(.1.n -.` O N M @ ",
"@ M N O ` -.n ^.2.3.4.5.6.H 7.8.8.9.G 0.S 4.a.b.H n -.` O c.d.# ",
"@ M N O ` -.D e.f.g.n H H h.i.j.G G k.l.g.m.H H H n n.o.O L # # ",
"@ p.q.r.| s.t.u.v.w.H n x.y.. G G z.A.B.n H H H n C.D.r.E.F.#   ",
"# # G.w H.I.J.n H H H K.b.K.L.L.L.e.n H H H H n n M.N.Y ] @ #   ",
"    # O.( P.Q.l.R.S.S.S.S.S.S.S.S.S.S.S.S.S.S.R.l.{ T.U.#       ",
"        V.W.E.X.Y.Z.} } } } } } } } } } `. +.+++@+#+V.          ",
"        $+%+&+*+3 =+-+;+>+,+,+,+,+,+,+,+'+3 3 )+!+~+{+          ",
"    # %.p.L ]+O.^+^+^+%.* N N N N N N h /+^+^+(+g )+v _+#       ",
"  # :+<+, [+}+|+% 1+2+3+4+4+4+4+4+4+4+4+5+% % % % d c.$ {+#     ",
"  # $+6+7+8+9+0+a+c.b+c+c+d+( e+e+( d+c+b+f+g+h+0+i+i+j+v #     ",
"  # $+k+[ [ [ l+e m+n+o+o+p+q+q+q+q+p+o+o+n+r+e l+[ [ s+v #     ",
"# t+u+v+w+w+w+x+y+z+[ [ [ [ [ [ [ [ [ [ [ [ z+y+A+[ [ B+M C+#   ",
"@ M D+E+F+G+G+H+I+J+K+K+K+K+K+K+K+K+K+K+K+K+J+I+L+M+M+N+O+$+#   ",
"# Z %+W.W.W.W.1 P++ + + + + + + + + + + + + + P+Q+R+R+R+S+2 #   ",
"}./ M T+T+T+T+t+~.U+V+V+V+V+V+V+V+V+V+V+O+p.W+X+Y+T+T+T+Z+5+#   ",
"  }.+ `+`+`+`+&+~.)+ @.@j A.(.(.(.(.A.+@@@2+- + :+#@#@#@+ #     ",
"    $@%@&@&@&@*@=@-@2+;@j >@(+,@,@(+>@'@)@!@~@{@{@{@{@]@^@      ",
"        /@/@/@/@(@C.2+;@j V++ _@_@+ V+'@)@}.:@/@/@/@/@          ",
"                X+<@[@j j V++     + V+'@}@] |@    1@            ",
"          2@3@4@}@5@j j j V++ 6@6@+ V+j .@7@)+8@9@0@            ",
"              ~.#@a@J+J+J+b@c@d@d@c@b@J+J+a@Z                   "};
