/* XPM */
static char * space_right_xpm[] = {
"32 32 311 2",
"  	c None",
". 	c #262424",
"+ 	c #2F2D2D",
"@ 	c #393636",
"# 	c #252323",
"$ 	c #454242",
"% 	c #474444",
"& 	c #4E4B4B",
"* 	c #575353",
"= 	c #444141",
"- 	c #282626",
"; 	c #323030",
"> 	c #524E4E",
", 	c #565252",
"' 	c #5A5656",
") 	c #5B5757",
"! 	c #646060",
"~ 	c #777272",
"{ 	c #6C6868",
"] 	c #676464",
"^ 	c #656161",
"/ 	c #302D2D",
"( 	c #454141",
"_ 	c #625D5D",
": 	c #9A999A",
"< 	c #AAAAAC",
"[ 	c #B0B0B2",
"} 	c #BEBDBF",
"| 	c #B7B6B8",
"1 	c #7E7A7A",
"2 	c #585454",
"3 	c #272525",
"4 	c #3B3838",
"5 	c #514D4D",
"6 	c #5B5656",
"7 	c #6C6666",
"8 	c #6D6869",
"9 	c #BCBDC0",
"0 	c #D4D7DA",
"a 	c #D9DCDF",
"b 	c #D8DBDE",
"c 	c #C2C5C8",
"d 	c #78797B",
"e 	c #9C9EA0",
"f 	c #D6D9DC",
"g 	c #CCCED0",
"h 	c #969293",
"i 	c #646161",
"j 	c #514E4E",
"k 	c #4C4949",
"l 	c #5F5A5A",
"m 	c #7C7878",
"n 	c #B7B6B7",
"o 	c #BEC0C3",
"p 	c #B9BBBE",
"q 	c #7D7F81",
"r 	c #060707",
"s 	c #050505",
"t 	c #020202",
"u 	c #0F0E0E",
"v 	c #070606",
"w 	c #000000",
"x 	c #494A4C",
"y 	c #BABCBF",
"z 	c #DADDE0",
"A 	c #BBBBBC",
"B 	c #8C898A",
"C 	c #464343",
"D 	c #534F4F",
"E 	c #5E5A5A",
"F 	c #696464",
"G 	c #858182",
"H 	c #929496",
"I 	c #373839",
"J 	c #6E6B6B",
"K 	c #565353",
"L 	c #030303",
"M 	c #121212",
"N 	c #212020",
"O 	c #201F1F",
"P 	c #1C1B1B",
"Q 	c #181717",
"R 	c #131212",
"S 	c #0E0E0F",
"T 	c #8F9193",
"U 	c #D2D5D8",
"V 	c #949395",
"W 	c #4D4949",
"X 	c #635E5E",
"Y 	c #959395",
"Z 	c #D0D3D6",
"` 	c #C6C9CC",
" .	c #181819",
"..	c #080707",
"+.	c #373636",
"@.	c #737070",
"#.	c #757272",
"$.	c #3D3B3B",
"%.	c #827F7F",
"&.	c #656262",
"*.	c #393838",
"=.	c #1D1C1C",
"-.	c #090808",
";.	c #070707",
">.	c #494A4B",
",.	c #AFB2B4",
"'.	c #A2A3A5",
").	c #757374",
"!.	c #4F4C4C",
"~.	c #999799",
"{.	c #CCCFD2",
"].	c #1E1D1D",
"^.	c #565454",
"/.	c #797676",
"(.	c #6A6868",
"_.	c #686565",
":.	c #777474",
"<.	c #5C5A5A",
"[.	c #161616",
"}.	c #AAACAF",
"|.	c #C5C5C7",
"1.	c #918D8D",
"2.	c #838080",
"3.	c #585555",
"4.	c #282727",
"5.	c #383636",
"6.	c #625F5F",
"7.	c #8B8787",
"8.	c #252424",
"9.	c #3F3E3E",
"0.	c #706D6D",
"a.	c #7A7777",
"b.	c #2E2D2D",
"c.	c #0E0E0E",
"d.	c #514F4F",
"e.	c #878484",
"f.	c #343333",
"g.	c #4A4848",
"h.	c #646262",
"i.	c #232222",
"j.	c #100F0F",
"k.	c #AAADAF",
"l.	c #524F4F",
"m.	c #4F4D4D",
"n.	c #726F6F",
"o.	c #1F1E1E",
"p.	c #7C7979",
"q.	c #575555",
"r.	c #686666",
"s.	c #848181",
"t.	c #3B3939",
"u.	c #1B1A1A",
"v.	c #ABADB0",
"w.	c #2E2C2C",
"x.	c #2D2B2B",
"y.	c #484545",
"z.	c #858282",
"A.	c #222121",
"B.	c #353434",
"C.	c #767373",
"D.	c #403E3E",
"E.	c #020101",
"F.	c #302E2E",
"G.	c #717274",
"H.	c #484949",
"I.	c #ABAEB0",
"J.	c #908C8C",
"K.	c #4C4848",
"L.	c #5D5959",
"M.	c #817E7F",
"N.	c #AEAFB1",
"O.	c #9D9FA1",
"P.	c #101111",
"Q.	c #2C2B2B",
"R.	c #373535",
"S.	c #555353",
"T.	c #787575",
"U.	c #6D6A6A",
"V.	c #131313",
"W.	c #161515",
"X.	c #ABADAF",
"Y.	c #B9BABD",
"Z.	c #6A6767",
"`.	c #595555",
" +	c #666262",
".+	c #918F90",
"++	c #BEC0C2",
"@+	c #5C5D5F",
"#+	c #1D1E1F",
"$+	c #050404",
"%+	c #555252",
"&+	c #363535",
"*+	c #504E4E",
"=+	c #1A1919",
"-+	c #373838",
";+	c #A7A9AB",
">+	c #B7B7B9",
",+	c #8B898A",
"'+	c #3C3939",
")+	c #4E4A4A",
"!+	c #666060",
"~+	c #B5B6B8",
"{+	c #9B9C9E",
"]+	c #171616",
"^+	c #191818",
"/+	c #141313",
"(+	c #0C0D0D",
"_+	c #87898B",
":+	c #C2C3C5",
"<+	c #AEACAD",
"[+	c #938F8F",
"}+	c #0D0C0D",
"|+	c #211F20",
"1+	c #343131",
"2+	c #605B5B",
"3+	c #8A8A8B",
"4+	c #A8AAAC",
"5+	c #8B8D8F",
"6+	c #454748",
"7+	c #B4B7B9",
"8+	c #B9B8BA",
"9+	c #787676",
"0+	c #696666",
"a+	c #5A5757",
"b+	c #3C3B3B",
"c+	c #5B5959",
"d+	c #8C8888",
"e+	c #363434",
"f+	c #4F4B4B",
"g+	c #595657",
"h+	c #777475",
"i+	c #8E8A8A",
"j+	c #8C8989",
"k+	c #454546",
"l+	c #383535",
"m+	c #2B2929",
"n+	c #8A8C8E",
"o+	c #A2A0A1",
"p+	c #A29E9E",
"q+	c #979393",
"r+	c #716E6E",
"s+	c #353232",
"t+	c #434040",
"u+	c #393737",
"v+	c #BBBEC0",
"w+	c #BDBCBE",
"x+	c #504D4D",
"y+	c #5F5C5C",
"z+	c #9B9797",
"A+	c #9F9B9B",
"B+	c #797575",
"C+	c #504C4C",
"D+	c #605C5C",
"E+	c #3D3A3A",
"F+	c #292727",
"G+	c #969292",
"H+	c #A19D9D",
"I+	c #736F6F",
"J+	c #676363",
"K+	c #868181",
"L+	c #7B7676",
"M+	c #555151",
"N+	c #4B4848",
"O+	c #403D3D",
"P+	c #807D7D",
"Q+	c #8F8B8B",
"R+	c #A8A5A5",
"S+	c #CACBCD",
"T+	c #BAB9BB",
"U+	c #ABA8A9",
"V+	c #2A2828",
"W+	c #939090",
"X+	c #625E5E",
"Y+	c #817D7D",
"Z+	c #423F3F",
"`+	c #343232",
" @	c #2C2A2A",
".@	c #3E3B3B",
"+@	c #595656",
"@@	c #6A6667",
"#@	c #7A7A7B",
"$@	c #727171",
"%@	c #959799",
"&@	c #969597",
"*@	c #666363",
"=@	c #333030",
"-@	c #4A4747",
";@	c #3F3C3C",
">@	c #484444",
",@	c #702005",
"'@	c #5D1005",
")@	c #651805",
"!@	c #661C0C",
"~@	c #4D1A1A",
"{@	c #6B6868",
"]@	c #660907",
"^@	c #4F1A19",
"/@	c #2E2A2A",
"(@	c #716D6D",
"_@	c #827E7E",
":@	c #494646",
"<@	c #353333",
"[@	c #5F5B5B",
"}@	c #888484",
"|@	c #999595",
"1@	c #989595",
"2@	c #545151",
"3@	c #888585",
"4@	c #494545",
"5@	c #2F2C2C",
"6@	c #2D1303",
"                      . + @ @ @ @ @ @ + . .                     ",
"              . # $ % % & * * * * * * & % % = . .               ",
"            - ; > , ' ) ) ! ~ ~ ~ ~ { ] ] ] ^ > ; -             ",
"        . / ( * * _ : < < [ } } } } } } } } | 1 2 ( / .         ",
"    . 3 4 5 6 7 8 9 0 a b c d d d d d d d e f g h i j 4 3 .     ",
"    @ k * l m n a o p q r s t u u u u v w t x y z A B ^ k @     ",
"# C D * E F G z H I J K w w L M N O N P Q R w S T U g V * W .   ",
"# > * * X Y Z `  ...+.@.#.$.w w w %.&.*.N O =.-.;.>.,.'.).! !.# ",
"# > * * X ~.{.w w ].N N ^./.(.w w w _.:.<.N N N N [.v }.|.1.> # ",
"# > * * X ~.{.w w 2.3.4.N 5.6.7.8.v w 9.0.a.b.N N N c.}.|.1.> # ",
"# > * * X ~.{.w w w @.#.d.N N # e._.f.w w g.2.h.i.N j.k.|.1.> # ",
"# l.* * X ~.{.w w w w m.#.n.o.N O h.p.q.w w 8.r.s.t.u.v.|.1.> # ",
"  w.x.y.X ~.{.w w w w w ].3.z.d.A.N B.n.C.D.w E.F.G.H.I.|.J.K.. ",
"    . % L.M.N.O.P.w w w w w Q.:.:.R.N N S.T.U.w w V.W.X.Y.Z.. . ",
"    . C , `. +.+++@+#+w w w w $+%+Q.N N N &+*+=+L -+;+>+,+.     ",
"        '+)+* * !+~+{+@+w w w w w ]+^+^+^+/+w (+_+:+<+[+n.      ",
"      w }+|+1+1+* 2+3+4+5+w w w w w w w w w 6+7+8+9+0+a+        ",
"    w b+*+*+c+d+e+k f+g+h+J.J.J.J.J.J.i+j+j+z.k+= l+m+          ",
"  w n+o+p+q+r+. , C.a.^.s+t+t+t+t+t+t+= = = = ( * * u+          ",
"  w v+w+p+d+w.x+y+z+A+B+C+5 D D D D D * `.`.* * D+2 E+F+        ",
"  w v+w+G+@.F.`.H+p+I+f+!.J+K+K+K+K+K+K+K+L+M+N+p+ +* O+.       ",
"  w v+w+P+1+2 Q+p+p+I+O+O+I+R+S+S+S+S+S+T+1.> m+H+&.* O+.       ",
"  w v+w+P+u+&.p+p+p+I+O+O+I+U+z z z z z |.1.> V+W+X+* O+.       ",
"  w v+w+P+u+E Y+Y+Y+&.O+O+I+U+z z z z z |.1.> . Z+Z+Z+`+.       ",
"  w v+w+P+ @@ @ @ @ @ + .@+@@@#@#@#@#@#@$@X+f+3 x+5 5 E+.       ",
"  w %@&@*@=@-@* * * * O+; ;@;@;@;@;@;@;@;@;@'+3 >@y.y.R..       ",
"  ,@'@)@!@~@F+4 4 4 4 F.O+{@J.J.J.J.J.J.J.%.> #                 ",
"  ]@    ^@/@E+* 0.(@(@(@(@_@p+p+p+p+T.:@<@C > #                 ",
"          u+[@}@p+p+p+p+p+p+p+p+p+p+p+r+O+* > #                 ",
"          u+&.p+z+|@1@1@1@1@1@1@1@1@1@{@.@l.)+.                 ",
"          e+2@3@4@5@# e+e+# # # # # # . . . . .                 ",
"6@            @       e+e+                                      "};
