/* XPM */
static char * obj_xpm[] = {
"32 32 8 1",
" 	c None",
".	c #131313",
"+	c #657392",
"@	c #92A1B9",
"#	c #424C6E",
"$	c #C7CFDD",
"%	c #FFFFFF",
"&	c #2A2F4E",
"                                ",
"                                ",
"                                ",
"                                ",
"                                ",
"                                ",
"                                ",
"                                ",
"                                ",
"                                ",
"              .....             ",
"             .++@##.            ",
"            .++@$+##.           ",
"           .++@$.@+##.          ",
"          .++@$.$.@+##.         ",
"         .++@$.$%$.@+##.        ",
"         .@@$.@$%$@.@++.        ",
"         .##+@.@$@.+#&&.        ",
"          .##+@.@.+#&&.         ",
"           .##+@.+#&&.          ",
"            .##+@#&&.           ",
"             .##+&&.            ",
"              .....             ",
"                                ",
"                                ",
"                                ",
"                                ",
"                                ",
"                                ",
"                                ",
"                                ",
"                                "};
