/* XPM */
static char * Brick2_Texture_xpm[] = {
"32 32 171 2",
"  	c #40453F",
". 	c #414640",
"+ 	c #424741",
"@ 	c #3B3E39",
"# 	c #40443E",
"$ 	c #3F443E",
"% 	c #3D403B",
"& 	c #3E433D",
"* 	c #3E423C",
"= 	c #40433E",
"- 	c #41443F",
"; 	c #3D413C",
"> 	c #3E423D",
", 	c #3F433D",
"' 	c #3D423C",
") 	c #41453F",
"! 	c #40443F",
"~ 	c #494D47",
"{ 	c #464B45",
"] 	c #454A44",
"^ 	c #3C403B",
"/ 	c #3F433E",
"( 	c #3E403C",
"_ 	c #3C403A",
": 	c #3C413B",
"< 	c #3C3F3A",
"[ 	c #424641",
"} 	c #414540",
"| 	c #40423E",
"1 	c #40433D",
"2 	c #3F413D",
"3 	c #434741",
"4 	c #3D413B",
"5 	c #3B403A",
"6 	c #3E403B",
"7 	c #3F423E",
"8 	c #424541",
"9 	c #3E413C",
"0 	c #40423D",
"a 	c #444943",
"b 	c #454944",
"c 	c #3B3F39",
"d 	c #3A3E39",
"e 	c #3A3D38",
"f 	c #3A3C38",
"g 	c #3C3E39",
"h 	c #3F413C",
"i 	c #3D403C",
"j 	c #474B46",
"k 	c #434742",
"l 	c #454844",
"m 	c #454843",
"n 	c #444742",
"o 	c #424440",
"p 	c #3F423D",
"q 	c #424640",
"r 	c #393C37",
"s 	c #3B3E3A",
"t 	c #484D47",
"u 	c #474A45",
"v 	c #484C47",
"w 	c #41433E",
"x 	c #454742",
"y 	c #3C3F3B",
"z 	c #3B3D39",
"A 	c #464A45",
"B 	c #424441",
"C 	c #3C3E3A",
"D 	c #3A3C37",
"E 	c #373A35",
"F 	c #3B3D38",
"G 	c #3A3F39",
"H 	c #393D38",
"I 	c #363934",
"J 	c #383B36",
"K 	c #444642",
"L 	c #444641",
"M 	c #40433F",
"N 	c #41433F",
"O 	c #464945",
"P 	c #3D3F3A",
"Q 	c #383D37",
"R 	c #393D37",
"S 	c #434540",
"T 	c #444643",
"U 	c #484A47",
"V 	c #464844",
"W 	c #3F413E",
"X 	c #434541",
"Y 	c #424540",
"Z 	c #393C38",
"` 	c #353733",
" .	c #373936",
"..	c #444843",
"+.	c #494C47",
"@.	c #4A4D48",
"#.	c #42443F",
"$.	c #373A36",
"%.	c #383B37",
"&.	c #474B45",
"*.	c #484A46",
"=.	c #4B4D49",
"-.	c #454943",
";.	c #434641",
">.	c #444842",
",.	c #434842",
"'.	c #363834",
").	c #474C46",
"!.	c #414440",
"~.	c #494D48",
"{.	c #4B4E49",
"].	c #50534E",
"^.	c #444743",
"/.	c #464944",
"(.	c #353834",
"_.	c #4C514B",
":.	c #464845",
"<.	c #494B48",
"[.	c #434841",
"}.	c #343733",
"|.	c #4A4F49",
"1.	c #4E514B",
"2.	c #4E524C",
"3.	c #494C48",
"4.	c #474945",
"5.	c #484C46",
"6.	c #4D514B",
"7.	c #51554F",
"8.	c #50524D",
"9.	c #4E514C",
"0.	c #4D504B",
"a.	c #4B4D4A",
"b.	c #4D514C",
"c.	c #474944",
"d.	c #4D4F4B",
"e.	c #4F514D",
"f.	c #4A4C48",
"g.	c #4E534D",
"h.	c #4E504C",
"i.	c #494E48",
"j.	c #4C4F4A",
"k.	c #4A4D49",
"l.	c #4C4E49",
"m.	c #494B46",
"n.	c #4A4E48",
"o.	c #4D4F4A",
"p.	c #454743",
"q.	c #434642",
"r.	c #3B3D3A",
"s.	c #484B47",
"t.	c #40413E",
"u.	c #393B38",
"v.	c #383A37",
"w.	c #3F423C",
"x.	c #383A36",
"y.	c #40423F",
"z.	c #434542",
"A.	c #3B3F3A",
"B.	c #393B37",
"C.	c #3D3F3B",
"D.	c #414340",
"E.	c #3D3F3C",
"F.	c #353734",
"G.	c #3C3E3B",
"H.	c #4A4E49",
"I.	c #4C504A",
"J.	c #464A44",
"K.	c #3C3F39",
"L.	c #3E433E",
"M.	c #3F443D",
"N.	c #3E413B",
"  . + . @   # $   $ . + % & * % * = - =   . + . ;   $ @ $ > , . ",
". . + . $ ' %       ) !   & ) ~ { ] ^ / , ( % * _ $ # & @ : $   ",
"% #   $ , * <   ' + [ . : / $   } | 1 2 3 + & & $ . . @ } ; 4   ",
"  ^ < ; & ' & 5 * . 6 . > : .   ( | 7 8 .   & ^ ' $ & # & $ <   ",
"<   ; &     & & 9   0 $ a b } , ] 9 c ; 4 , # _ & , # ;   ^ ! _ ",
"d e f @ e g h i % . # j k - , 2 l m 3 n o 6 ) _ p = * q & i > # ",
"< < r s 9 @ < ' $ ] # ] . t u v ) w 2 q } x * ) $ + $   . y z > ",
"; < @ , e c / & & $ * [ A # p 2 8 B | 9 p ( C , _ * 4 % 4 g @ D ",
"! p & E F G ^ H I J > / v [ K L o M N O k 3 2 = P . : 9 p .   $ ",
"+ } c G Q R J J D c e c a q S T U V W X Y o = p h P % & + # $   ",
") ^ Z d ` f 9 . . . %  .q ..B +.Y W | @.= #.8 q ( /   > & / 6 < ",
", ; $.%.% } &.] ] a a < 9 { *.O V =.-.&.;...>.>.,.+ + - } * $ + ",
"q Z '.; $ { ,.] ] ).] 9 !.~.{.].{.^./.^.^.;.{ -.+ + + !       . ",
"= < (.> a ).,.,.a _.).Z u ..8 l :.<.:.u ~.m t { ] . . [.! ] ,.. ",
"# < }.r ] a ,.] |.|.q ( _.+.1.2.3.l 4.*.|.5.{ >.M i > 3 ) { . ' ",
">.. / ,   . . ,.|.] = b 6.6.7.8.9.0.a.~.b.j >.X N | #.} c.+ + . ",
"} ' q ,.+ ,.+ ,.a ).[ |.A d.e.@.f.g.h.l i.j.+.o - ..!./ n ,.$ ) ",
"  + } a & { . a [ ).m A 3.{.9.k.!.k l.+.u ).m.;.3 u W ,.!.! .   ",
"& -.$ ..+ a . n !.4.n.|._.g.~ o.8 B ~ u p.q.L #./ X } * 7 s + . ",
"+ = = >.q * -.2 r.).m -.~ *.s.=.q.t.n 9.:.8 ) N M / ) } @ < . } ",
"u.v.3 > < w.) x.r.>.y.j 5.*.@.j T W y.z.q.n k #.) m $ *  .s = 4 ",
"A.B.3 ' / 2 3 C.i o 0 X K D.).&.^.o E.3 l [ -.q 4 p + # F.f i ^ ",
"! %.# A.; # $ G./ 7 . o S m ).j m { 9 Y ^.m q + ,.. .   x.v.v.s ",
"i @ p % > % 4 ,.= ( -.p L v H.I.j.@.- ] j M # {   ) ) . e v.< '.",
" .4   @ $ ; < w p 9 ] . } ) { ] &.5.a ;.- q >.Y * # / & w.r < $.",
"A.& & A.< ) e % ! ,.,.] { a u 7 ! a } | = o .   / g % 4 $ R e r ",
"  $ & _ < A.; z $ a -.+ q M p -.J.k = * p ^   ! + * P F C._ c % ",
"' &   + .   C.% . +     > > ) 3 + ! = # 9 ' $ ,.,.,.; % x.% > $ ",
"; K.= & $ & 4 / , ,.,.. + . J.A m C.C.. % ; $ . ,.3 > ^ e % _ 4 ",
"^ , . 4 & _ L.+ [.+   $ $ . >.9 + } ) p , P   + ] b   _ ( @ Z ' ",
". % & $ 4 * _ + + ! ! + , + } Y ^.9 5 [ % & . , , . 3 y ) * * , ",
")   M.* 4 * 4 + ,.+ . $ $   # . q p N.9 * & # ; ' * * G ' 4 c ) "};
