/* XPM */
static char * Stones_Texture_xpm[] = {
"32 32 272 2",
"  	c #0D0A08",
". 	c #191817",
"+ 	c #151313",
"@ 	c #2A2826",
"# 	c #2A2725",
"$ 	c #211E1B",
"% 	c #25211F",
"& 	c #211E1D",
"* 	c #292726",
"= 	c #1F1D1D",
"- 	c #0C0A08",
"; 	c #0E0B09",
"> 	c #141312",
", 	c #1E1D1C",
"' 	c #252423",
") 	c #110F0D",
"! 	c #1E1C1B",
"~ 	c #181615",
"{ 	c #292727",
"] 	c #141211",
"^ 	c #0D0B09",
"/ 	c #181716",
"( 	c #110F0E",
"_ 	c #0D0B0A",
": 	c #1C1B1A",
"< 	c #1B1918",
"[ 	c #2D2825",
"} 	c #27211E",
"| 	c #1C130C",
"1 	c #1B110D",
"2 	c #1C120D",
"3 	c #1B110C",
"4 	c #19100C",
"5 	c #1E1511",
"6 	c #171210",
"7 	c #0C0908",
"8 	c #211F1E",
"9 	c #2E2A27",
"0 	c #27211D",
"a 	c #1D140F",
"b 	c #292320",
"c 	c #2A2522",
"d 	c #2A231F",
"e 	c #231C17",
"f 	c #100C09",
"g 	c #2E2B29",
"h 	c #28221F",
"i 	c #221B17",
"j 	c #2B2421",
"k 	c #221A15",
"l 	c #1B120E",
"m 	c #120D0A",
"n 	c #1C120C",
"o 	c #1B120D",
"p 	c #1D130C",
"q 	c #1B120C",
"r 	c #19110B",
"s 	c #1D130E",
"t 	c #140E0B",
"u 	c #161210",
"v 	c #1A120C",
"w 	c #1A110C",
"x 	c #151413",
"y 	c #201914",
"z 	c #1D130D",
"A 	c #1B120B",
"B 	c #170F0A",
"C 	c #181412",
"D 	c #1D120D",
"E 	c #1C130D",
"F 	c #1A110D",
"G 	c #1D140D",
"H 	c #1A120B",
"I 	c #1B130C",
"J 	c #090604",
"K 	c #19100B",
"L 	c #1A100C",
"M 	c #191512",
"N 	c #1E130E",
"O 	c #130C08",
"P 	c #130F0D",
"Q 	c #1F130E",
"R 	c #18100A",
"S 	c #0B0604",
"T 	c #150F0C",
"U 	c #1C120E",
"V 	c #150C08",
"W 	c #0D0A09",
"X 	c #1D1510",
"Y 	c #1D120E",
"Z 	c #0D0704",
"` 	c #19120D",
" .	c #1E140E",
"..	c #110A07",
"+.	c #1C1410",
"@.	c #0F0907",
"#.	c #171615",
"$.	c #1F1611",
"%.	c #1A110B",
"&.	c #110B07",
"*.	c #1D1714",
"=.	c #100906",
"-.	c #150E0A",
";.	c #0F0906",
">.	c #171514",
",.	c #1A120D",
"'.	c #19110C",
").	c #221C1A",
"!.	c #17120F",
"~.	c #1A100D",
"{.	c #0A0705",
"].	c #1C1613",
"^.	c #160E0A",
"/.	c #1F1C1A",
"(.	c #0E0806",
"_.	c #15100E",
":.	c #160E09",
"<.	c #0E0805",
"[.	c #130C07",
"}.	c #180F0B",
"|.	c #18100B",
"1.	c #0A0706",
"2.	c #1F1917",
"3.	c #150D08",
"4.	c #1C1714",
"5.	c #0F0A06",
"6.	c #120F0D",
"7.	c #0A0604",
"8.	c #2E2C2C",
"9.	c #262322",
"0.	c #211D1C",
"a.	c #040303",
"b.	c #080707",
"c.	c #070504",
"d.	c #190F0B",
"e.	c #080605",
"f.	c #1C1512",
"g.	c #0B0605",
"h.	c #27221F",
"i.	c #0C0806",
"j.	c #241C19",
"k.	c #201815",
"l.	c #27201F",
"m.	c #1C1614",
"n.	c #191310",
"o.	c #0C0605",
"p.	c #060403",
"q.	c #090503",
"r.	c #080503",
"s.	c #090706",
"t.	c #15100C",
"u.	c #140D09",
"v.	c #232120",
"w.	c #241E1A",
"x.	c #0C0706",
"y.	c #160F09",
"z.	c #0B0705",
"A.	c #100A06",
"B.	c #262524",
"C.	c #2D2A28",
"D.	c #2F2A29",
"E.	c #2D2826",
"F.	c #25201C",
"G.	c #2B2725",
"H.	c #252220",
"I.	c #242020",
"J.	c #120B07",
"K.	c #12100F",
"L.	c #2A2421",
"M.	c #1E130D",
"N.	c #2C2928",
"O.	c #2C2927",
"P.	c #261F1C",
"Q.	c #231B16",
"R.	c #221D1A",
"S.	c #161312",
"T.	c #090705",
"U.	c #1B1917",
"V.	c #0B0706",
"W.	c #1D140E",
"X.	c #1F1713",
"Y.	c #211B19",
"Z.	c #181311",
"`.	c #14110F",
" +	c #211C1A",
".+	c #0A0807",
"++	c #100D0C",
"@+	c #1B130D",
"#+	c #1B110E",
"$+	c #241E1C",
"%+	c #0B0806",
"&+	c #0A0806",
"*+	c #1C140F",
"=+	c #18100C",
"-+	c #18120E",
";+	c #211B18",
">+	c #1D1713",
",+	c #19100A",
"'+	c #080604",
")+	c #0E0C0B",
"!+	c #1B1B1A",
"~+	c #090605",
"{+	c #0B0807",
"]+	c #070605",
"^+	c #251F1C",
"/+	c #150E09",
"(+	c #0C0805",
"_+	c #1F1E1D",
":+	c #2C2A29",
"<+	c #1E1612",
"[+	c #211D19",
"}+	c #110E0C",
"|+	c #0D0907",
"1+	c #140C09",
"2+	c #151312",
"3+	c #201915",
"4+	c #2D2927",
"5+	c #211814",
"6+	c #14100D",
"7+	c #130B08",
"8+	c #150D09",
"9+	c #150E08",
"0+	c #180F0A",
"a+	c #120A07",
"b+	c #0E0907",
"c+	c #100A07",
"d+	c #0B0908",
"e+	c #090807",
"f+	c #080706",
"g+	c #161413",
"h+	c #252321",
"i+	c #060504",
"j+	c #21201F",
"k+	c #2F2D2C",
"l+	c #2E2B2A",
"m+	c #1E1A19",
"n+	c #0C0907",
"o+	c #2A2523",
"p+	c #231D19",
"q+	c #2A2320",
"r+	c #302B2A",
"s+	c #1E1611",
"t+	c #292624",
"u+	c #2E2A29",
"v+	c #1E150F",
"w+	c #150F0B",
"x+	c #15110F",
"y+	c #2B2623",
"z+	c #18130F",
"A+	c #0B0907",
"B+	c #0F0C0A",
"C+	c #211A15",
"D+	c #150E0B",
"E+	c #1B130E",
"F+	c #131110",
"G+	c #201D1C",
"H+	c #1C110C",
"I+	c #18100E",
"J+	c #1D1B1A",
"K+	c #171311",
"L+	c #0F0A07",
"M+	c #24211F",
"N+	c #1E1B19",
"O+	c #0D0806",
"P+	c #1D1816",
"Q+	c #0D0906",
"R+	c #120D0B",
"S+	c #170E0A",
"T+	c #170F0B",
"U+	c #201B19",
"V+	c #140C08",
"W+	c #0C0705",
"  . + @ # $ % & * = - ; ; > , ' ) ! ! ~ { ]   ; ^ / ( ^ _ : !   ",
"< [ } | 1 2 3 4 3 5 6 7 8 9 0 a b c c d 1 e f - g h i j j k l m ",
"! 3 n o 2 p q r 3 2 s t u q v o | 2 w o o 1 4 x y q q 2 o z A B ",
"C 1 D 2 E F G w q H w I J K z n w n 4 E L 2 1 M 2 E 2 3 N 3 w O ",
"P 2 n o w q Q 1 2 q n E R S 1 2 z w 1 w w q E T U 2 z 3 2 q 3 V ",
"W X 4 Y 2 q G 1 2 D 2 2 2 Z ` q 2 2  .n 1 o z ..+.G n q D 2 1 @.",
"#.$.q 2 1 D q 1 %.q 2 n 2 &.*.1 1 2 q 3 2 q n =.-.| z 3 3 E n ;.",
">.,.1 Y q n A '.3 q 2 q q ..).E q o n w w z v &.!.2 w n 3 1 ~.@.",
"7 4 w n E z %.q 2 3 H 1 q {.].2 w 2 2 4 n z 2 ^./.2 4 3 w 2 w (.",
"; _.q :.=.<.[.R }.|.z ~.^.1.2.2 1 q E z E E q 3.4.q v w E 3 | 5.",
"; 6.7.8.9.0.] a.b.c.O p d.e.f.2 w '.1 E n 2 z g.h.q | 2 n 2 w i.",
";   9.j.| | k.l.0 m.c.}.w 1.n.o z 3.o.p.q.r.{.s.t.u.B |.1 z 3 i.",
"; v.w.q E 2 s 2 | K &.x.y.1.z.A.7.B.C.D.E.F.G.H.I.& + c.J.|.B 1.",
"K.L.n | q 1 2 M.q %.|.s.e.* N.O.# P.1 q 2 r E E w w Q.R.S._ T.; ",
"U.E n w n n 3 2 2 3 1 V.* y 2 | o q 1 W.o w K q 2 1 2 2 X.Y.Z.  ",
"`.n 1 2 2 2 E o q 2 q &. +2 n q M.z 3 1 s w w 2 w 1 w 4 3 q r .+",
"++@+2 3 %.q 2 w w 2 #+:.$+E 1 w 2 3 q E o w q q q w q 1 2 F L %+",
"&+*+q =+K q n q q o q :.m.o 2 n n 1 o n 3 q D 3 w 2 w 2 2 E q 1.",
"  -+r s q q q w 3 o 3 ..n.q 2 q o o 2 2 n 1 3 o 4 L R K }.}...&+",
"; ;+~.o w o z s v w 3 {.>+| 2 N q 1 n z q 2 2 ,+7.'+)+!+~+&+{+; ",
"  !.q o v 2 E n w q ,+]+^+q v 3 q E 2 q 2 /+(+~+_+:+c <+[+}+  ; ",
"; |+w 2 o 2 n q | 3 1+2+3+2 q n 2 |.w K =.s.; K.4+z q 1 z 5+6+  ",
";   T.&.7+8+9+/+0+w a+- b+;.8+0+B 8+c+~+7   ; H.s 1 2 2 | 2 K {.",
"; - 7 d+e+]+f+e.s.'+T.; g+h+>.i+1.&+j+k+l+m+n+M q w 2 2 n n q b+",
"; v.o+p+p+q+p+o+Z.n+; ] r+w s+;+t+u+d w n v+w+x+3 2 1 w %.2 | c+",
"{+y+z I w 2 n n v z+A+6.z 1 w q 1 n q w 2 w K B+q 2 w w 3 '.w (+",
">.C+| 1 w w n z q q D+d+E+w n 1 o z 3 q q w w F+a 2 v w w w %.1.",
"G+| o q E 4 w D H+A w z.I+'.2 1 q z H q n w 0+J+s s n q n M.1 %+",
"K+3 z q D 2 o 2 z 2 q L+~+3 2 2 2 q 3 q w 2 J.M+w G w 3 2 2 3 {.",
"N+4 v q 2 ~.D 2 2 2 2 O+{+n.w H | W. .q | q (+P+z | A q q r 3 Q+",
"R+w n q 2 8+S+q q w T+1.K.U+3.|.n w 2 3 %.<.{+t E | q q w 0+V+{.",
"  1.z.{.{.{+{+~+z.~+s.  - A+.+T.~+z.W+z.e.  ; &+{.(+(+z.{.1.A+; "};
