/* XPM */
static char * tiles_xpm[] = {
"32 32 3 1",
" 	c #6B6464",
".	c #7D7071",
"+	c #A0938E",
"  . . .. ...  .   . . .. ...  . ",
" +++++++........ +++++++........",
".+++++++.........+++++++........",
".+++++++.........+++++++........",
" +++++++........ +++++++........",
" +++++++........ +++++++........",
".+++++++ ........+++++++ .......",
" +++++++ ....... +++++++ .......",
"  .... . . .  .   .... . . .  . ",
".........+++++++.........+++++++",
" ....... +++++++ ....... +++++++",
" ........+++++++ ........+++++++",
"........ +++++++........ +++++++",
" ....... +++++++ ....... +++++++",
"........ +++++++........ +++++++",
" ........+++++++ ........+++++++",
"  . . .. ...  .   . . .. ...  . ",
" +++++++........ +++++++........",
".+++++++.........+++++++........",
".+++++++.........+++++++........",
" +++++++........ +++++++........",
" +++++++........ +++++++........",
".+++++++ ........+++++++ .......",
" +++++++ ....... +++++++ .......",
"  .... . . .  .   .... . . .  . ",
".........+++++++.........+++++++",
" ....... +++++++ ....... +++++++",
" ........+++++++ ........+++++++",
"........ +++++++........ +++++++",
" ....... +++++++ ....... +++++++",
"........ +++++++........ +++++++",
" ........+++++++ ........+++++++"};
