/* XPM */
static char * exit2_xpm[] = {
"32 32 335 2",
"  	c None",
". 	c #6B6665",
"+ 	c #CFCFCD",
"@ 	c #BFBCB8",
"# 	c #615648",
"$ 	c #6D6768",
"% 	c #928E93",
"& 	c #B5ACAC",
"* 	c #E4E4E3",
"= 	c #7E7A84",
"- 	c #AAA0A8",
"; 	c #776456",
"> 	c #5D504C",
", 	c #878280",
"' 	c #D5D3D4",
") 	c #9D917E",
"! 	c #887E6D",
"~ 	c #8D7C6E",
"{ 	c #A59EA2",
"] 	c #ABA9A7",
"^ 	c #ADA9A9",
"/ 	c #B3B2B4",
"( 	c #8E898D",
"_ 	c #DEDDDD",
": 	c #7A6450",
"< 	c #9F9083",
"[ 	c #B8AC8B",
"} 	c #8B8265",
"| 	c #685649",
"1 	c #775F53",
"2 	c #908675",
"3 	c #D2C7B2",
"4 	c #BAAB9B",
"5 	c #807873",
"6 	c #9E9898",
"7 	c #A19C9E",
"8 	c #BBB9BB",
"9 	c #7E797E",
"0 	c #A09AA1",
"a 	c #977251",
"b 	c #847162",
"c 	c #AA9F95",
"d 	c #CCC6BE",
"e 	c #AA9C8A",
"f 	c #5E5A57",
"g 	c #62575B",
"h 	c #5C5154",
"i 	c #5B4F5C",
"j 	c #4C4442",
"k 	c #ADA59C",
"l 	c #948D87",
"m 	c #A69B99",
"n 	c #878088",
"o 	c #968F94",
"p 	c #888289",
"q 	c #443034",
"r 	c #78695B",
"s 	c #6A5851",
"t 	c #665651",
"u 	c #857468",
"v 	c #615153",
"w 	c #644C48",
"x 	c #918687",
"y 	c #A19E9E",
"z 	c #5C464D",
"A 	c #767271",
"B 	c #B7B2B2",
"C 	c #8C878B",
"D 	c #C5C4C3",
"E 	c #C3C2C1",
"F 	c #A6A4A0",
"G 	c #4A3C3C",
"H 	c #9F8C7B",
"I 	c #8F7F72",
"J 	c #827264",
"K 	c #5C5855",
"L 	c #9A9089",
"M 	c #9C9894",
"N 	c #7B695D",
"O 	c #958E8C",
"P 	c #928D96",
"Q 	c #ACA9AC",
"R 	c #C7C2C2",
"S 	c #B9B2B1",
"T 	c #888590",
"U 	c #CDC8C6",
"V 	c #C3C1C1",
"W 	c #503F41",
"X 	c #81716B",
"Y 	c #978A82",
"Z 	c #6D6563",
"` 	c #6E666E",
" .	c #908A8B",
"..	c #BAB2AD",
"+.	c #6E5145",
"@.	c #57515A",
"#.	c #807C8A",
"$.	c #6F6876",
"%.	c #6D656C",
"&.	c #6C646B",
"*.	c #68616F",
"=.	c #584E56",
"-.	c #7F6D68",
";.	c #8A8078",
">.	c #B4ADAB",
",.	c #958F95",
"'.	c #58525C",
").	c #A4A2A0",
"!.	c #B7B7B5",
"~.	c #BBB4AD",
"{.	c #6D697E",
"].	c #5E3D49",
"^.	c #8E8082",
"/.	c #857B81",
"(.	c #4D4B5D",
"_.	c #382C2D",
":.	c #5D4745",
"<.	c #635C5B",
"[.	c #B3AAA9",
"}.	c #7B7378",
"|.	c #564B51",
"1.	c #787181",
"2.	c #817A85",
"3.	c #7B7583",
"4.	c #3D3B49",
"5.	c #0E0709",
"6.	c #120B0E",
"7.	c #0E0A0C",
"8.	c #040305",
"9.	c #030202",
"0.	c #68564C",
"a.	c #868084",
"b.	c #B8B2B0",
"c.	c #7D7379",
"d.	c #ABA19B",
"e.	c #59545D",
"f.	c #5A5564",
"g.	c #292531",
"h.	c #A58875",
"i.	c #847E81",
"j.	c #AAA2A8",
"k.	c #A79C98",
"l.	c #928B91",
"m.	c #000000",
"n.	c #494453",
"o.	c #89818E",
"p.	c #716768",
"q.	c #88828A",
"r.	c #CCC7C7",
"s.	c #958E93",
"t.	c #7E7885",
"u.	c #7C7972",
"v.	c #040302",
"w.	c #88818C",
"x.	c #AAA4A2",
"y.	c #606167",
"z.	c #877F87",
"A.	c #9A949D",
"B.	c #6E6976",
"C.	c #86808D",
"D.	c #BCB9B9",
"E.	c #3C3C4C",
"F.	c #C0BAB5",
"G.	c #999A99",
"H.	c #6E847C",
"I.	c #564D5A",
"J.	c #93888C",
"K.	c #6F6871",
"L.	c #DDD8D4",
"M.	c #A3A1A6",
"N.	c #363648",
"O.	c #8D8B85",
"P.	c #74A585",
"Q.	c #436450",
"R.	c #746D75",
"S.	c #756A74",
"T.	c #888385",
"U.	c #DFDDDE",
"V.	c #666572",
"W.	c #4D7763",
"X.	c #5B926C",
"Y.	c #3D4246",
"Z.	c #7A747B",
"`.	c #958D94",
" +	c #7D767B",
".+	c #ABA3A3",
"++	c #43424F",
"@+	c #63A17D",
"#+	c #677870",
"$+	c #5A5566",
"%+	c #837E83",
"&+	c #A39B9C",
"*+	c #625E70",
"=+	c #79778C",
"-+	c #24232A",
";+	c #598A73",
">+	c #657E72",
",+	c #555566",
"'+	c #514F63",
")+	c #474759",
"!+	c #5A556A",
"~+	c #575368",
"{+	c #6F9484",
"]+	c #405B56",
"^+	c #42434B",
"/+	c #766D74",
"(+	c #756E76",
"_+	c #585365",
":+	c #344F48",
"<+	c #667E70",
"[+	c #5E575D",
"}+	c #7B747E",
"|+	c #AEA6A5",
"1+	c #88848B",
"2+	c #70697C",
"3+	c #5E6161",
"4+	c #3D5F56",
"5+	c #9B9686",
"6+	c #8E868C",
"7+	c #C7BEB6",
"8+	c #8B8490",
"9+	c #787083",
"0+	c #6C6A6C",
"a+	c #4E4A44",
"b+	c #3C5851",
"c+	c #928A8B",
"d+	c #BDB5B4",
"e+	c #898291",
"f+	c #817B8A",
"g+	c #605E60",
"h+	c #67504A",
"i+	c #424C4C",
"j+	c #635A69",
"k+	c #A69EA0",
"l+	c #91898F",
"m+	c #8B818B",
"n+	c #463D3D",
"o+	c #8B7667",
"p+	c #6C6057",
"q+	c #665E6A",
"r+	c #70677C",
"s+	c #887D83",
"t+	c #847B88",
"u+	c #AEA8A1",
"v+	c #958B83",
"w+	c #4A3A3C",
"x+	c #787176",
"y+	c #8D858F",
"z+	c #726B79",
"A+	c #837B88",
"B+	c #999199",
"C+	c #B0ABAB",
"D+	c #C7C2BC",
"E+	c #7F787C",
"F+	c #A1989B",
"G+	c #7B7580",
"H+	c #817989",
"I+	c #090704",
"J+	c #958F96",
"K+	c #8C878F",
"L+	c #898387",
"M+	c #B1A9A8",
"N+	c #A8A2A6",
"O+	c #88818B",
"P+	c #C9C0B8",
"Q+	c #89837F",
"R+	c #756A76",
"S+	c #69636F",
"T+	c #AAA5A9",
"U+	c #D2CFCE",
"V+	c #E9E6E0",
"W+	c #EBEAE9",
"X+	c #CECBCD",
"Y+	c #918A93",
"Z+	c #100E11",
"`+	c #51313F",
" @	c #4F485E",
".@	c #8F8891",
"+@	c #8A8493",
"@@	c #9D979E",
"#@	c #A1979C",
"$@	c #8C8693",
"%@	c #8A8485",
"&@	c #898483",
"*@	c #3D3942",
"=@	c #645E61",
"-@	c #88827F",
";@	c #A7A4A2",
">@	c #9E9996",
",@	c #A7A19A",
"'@	c #53323A",
")@	c #5B413E",
"!@	c #6B6154",
"~@	c #82756C",
"{@	c #7B6B6E",
"]@	c #756C77",
"^@	c #A09795",
"/@	c #DAD6D3",
"(@	c #9E9C9B",
"_@	c #6C5D5E",
":@	c #958D8B",
"<@	c #A49E99",
"[@	c #938D91",
"}@	c #E9E7E4",
"|@	c #C1BBB6",
"1@	c #362429",
"2@	c #3B3029",
"3@	c #816B5A",
"4@	c #74594E",
"5@	c #694543",
"6@	c #654144",
"7@	c #4E3A40",
"8@	c #555064",
"9@	c #5F5B71",
"0@	c #6F4F4D",
"a@	c #927B6B",
"b@	c #676065",
"c@	c #544E61",
"d@	c #797479",
"e@	c #867A82",
"f@	c #7E7684",
"g@	c #5B4840",
"h@	c #5C4B44",
"i@	c #522C30",
"j@	c #4E3238",
"k@	c #42383F",
"l@	c #3B364E",
"m@	c #484359",
"n@	c #443344",
"o@	c #644A48",
"p@	c #66504A",
"q@	c #4E373D",
"r@	c #776E6F",
"s@	c #3E2C36",
"t@	c #4D4147",
"        . + @   #   $ % & * = - - = * & % $   #   @ + .         ",
"      ; > , ' ) ! ~ { ] ^ / ( _ _ ( / ^ ] { ~ ! ) ' , > ;       ",
"  : < [ } | 1 2 3 4 5 6 7 8 9 0 0 9 8 7 6 5 4 3 2 1 | } [ < :   ",
"a b c d e f g h i j k l m n o p p o n m l k j i h g f e d c b a ",
"q r s t u v w x y z A B C D E F F E D C B A z y x w v u t s r q ",
"G H I J K L M N O P Q R S T U V V U T S R Q P O N M L K J I H G ",
"  W X Y Z `  ...+.@.#.$.%.&.*.=.=.*.&.%.$.#.@.+... .` Z Y X W   ",
"    -.;.>.,.'.).!.~.{.].^./.(._._.(./.^.].{.~.!.).'.,.>.;.-.    ",
"    :.<.[.}.|.1.2.3.4.5.6.7.8.9.9.8.7.6.5.4.3.2.1.|.}.[.<.:.    ",
"    0.a.b.c.d.e.f.g.9.9.9.9.9.9.9.9.9.9.9.9.g.f.e.d.c.b.a.0.    ",
"    h.i.j.k.l.m.9.9.9.9.9.9.9.9.9.9.9.9.9.9.9.9.m.l.k.j.i.h.    ",
"n.o.p.q.r.s.t.u.v.9.9.9.9.9.9.9.9.9.9.9.9.9.9.v.u.t.s.r.q.p.o.n.",
"w.x.y.z.A.B.C.D.E.9.9.9.9.9.9.9.9.9.9.9.9.9.9.E.D.C.B.A.z.y.x.w.",
"F.G.H.I.J.K.L.M.N.9.9.9.9.9.9.9.9.9.9.9.9.9.9.N.M.L.K.J.I.H.G.F.",
"O.P.Q.R.S.T.U.V.9.9.9.9.9.9.9.9.9.9.9.9.9.9.9.9.V.U.T.S.R.Q.P.O.",
"W.X.Y.Z.`. +.+++9.9.9.9.9.9.9.9.9.9.9.9.9.9.9.9.++.+ +`.Z.Y.X.W.",
"@+#+$+%+&+*+=+-+9.9.9.9.9.9.9.9.9.9.9.9.9.9.9.9.-+=+*+&+%+$+#+@+",
";+>+,+'+)+!+~+m.9.9.9.9.9.9.9.9.9.9.9.9.9.9.9.9.m.~+!+)+'+,+>+;+",
"{+]+^+/+`.(+_+m.9.9.9.9.9.9.9.9.9.9.9.9.9.9.9.9.m._+(+`./+^+]+{+",
":+<+[+}+|+1+2+m.9.9.9.9.9.9.9.9.9.9.9.9.9.9.9.9.m.2+1+|+}+[+<+:+",
"3+4+5+6+7+8+9+m.9.9.9.9.9.9.9.9.9.9.9.9.9.9.9.9.m.9+8+7+6+5+4+3+",
"0+a+b+c+d+e+f+m.9.9.9.9.9.9.9.9.9.9.9.9.9.9.9.9.m.f+e+d+c+b+a+0+",
"g+h+i+j+k+l+m+m.9.9.9.9.9.9.9.9.9.9.9.9.9.9.9.9.m.m+l+k+j+i+h+g+",
"n+o+p+q+r+s+t+m.9.9.9.9.9.9.9.9.9.9.9.9.9.9.9.9.m.t+s+r+q+p+o+n+",
"u+v+w+x+y+z+A+m.9.9.9.9.9.9.9.9.9.9.9.9.9.9.9.9.m.A+z+y+x+w+v+u+",
"B+C+D+E+F+G+H+I+9.9.9.9.9.9.9.9.9.9.9.9.9.9.9.9.I+H+G+F+E+D+C+B+",
"J+K+L+M+N+O+P+Q+9.9.9.9.9.9.9.9.9.9.9.9.9.9.9.9.Q+P+O+N+M+L+K+J+",
"R+S+T+U+V+W+X+Y+Z+9.9.9.9.9.9.9.9.9.9.9.9.9.9.Z+Y+X+W+V+U+T+S+R+",
"  `+ @.@+@@@#@$@%@&@*@=@-@;@>@,@,@>@;@-@=@*@&@%@$@#@@@+@.@ @`+  ",
"  '@)@!@~@{@]@^@/@(@_@:@<@[@}@|@|@}@[@<@:@_@(@/@^@]@{@~@!@)@'@  ",
"1@2@3@4@5@6@7@8@9@0@a@b@c@d@e@f@f@e@d@c@b@a@0@9@8@7@6@5@4@3@2@1@",
"    g@h@i@j@k@l@m@n@o@p@q@r@s@t@t@s@r@q@p@o@n@m@l@k@j@i@h@g@    "};
