/* XPM */
static char * exit_xpm[] = {
"24 32 369 2",
"  	c #70563C",
". 	c #876C53",
"+ 	c #856C55",
"@ 	c #715C4B",
"# 	c #43240E",
"$ 	c #543216",
"% 	c #613C1C",
"& 	c #836447",
"* 	c #8B6E51",
"= 	c #87684E",
"- 	c #8D6F52",
"; 	c #8F7358",
"> 	c #6D4727",
", 	c #6F4C34",
"' 	c #6D4A34",
") 	c #47382D",
"! 	c #3C2111",
"~ 	c #522F16",
"{ 	c #4C2B16",
"] 	c #66442C",
"^ 	c #7C5232",
"/ 	c #6D4931",
"( 	c #784D30",
"_ 	c #774F34",
": 	c #512F13",
"< 	c #513016",
"[ 	c #150F0C",
"} 	c #4A2812",
"| 	c #2D1A0F",
"1 	c #412310",
"2 	c #3D2210",
"3 	c #402411",
"4 	c #412512",
"5 	c #3B2210",
"6 	c #4E2D15",
"7 	c #2F1C0F",
"8 	c #4E2910",
"9 	c #683D1B",
"0 	c #472510",
"a 	c #79441B",
"b 	c #673816",
"c 	c #5C3B20",
"d 	c #6F492A",
"e 	c #794722",
"f 	c #896146",
"g 	c #79441C",
"h 	c #6E3F1B",
"i 	c #573217",
"j 	c #5B3012",
"k 	c #6A3D1B",
"l 	c #4A2710",
"m 	c #77461E",
"n 	c #877260",
"o 	c #897864",
"p 	c #8C7964",
"q 	c #8E7863",
"r 	c #86725E",
"s 	c #7B6855",
"t 	c #A88563",
"u 	c #552F14",
"v 	c #4F2A10",
"w 	c #432613",
"x 	c #341D0F",
"y 	c #532D14",
"z 	c #673817",
"A 	c #4D2C14",
"B 	c #6F4F35",
"C 	c #59371A",
"D 	c #3E2614",
"E 	c #020002",
"F 	c #AC8D6C",
"G 	c #4C2C14",
"H 	c #3E220E",
"I 	c #573116",
"J 	c #482812",
"K 	c #4F2D14",
"L 	c #51321C",
"M 	c #846445",
"N 	c #472812",
"O 	c #502E11",
"P 	c #744822",
"Q 	c #46280F",
"R 	c #A88C6E",
"S 	c #522F15",
"T 	c #552F13",
"U 	c #663A1A",
"V 	c #4B2811",
"W 	c #663917",
"X 	c #27170D",
"Y 	c #8C7052",
"Z 	c #62462C",
"` 	c #967E67",
" .	c #684C32",
"..	c #68421F",
"+.	c #8F785E",
"@.	c #4B2A13",
"#.	c #593113",
"$.	c #653A19",
"%.	c #4C2912",
"&.	c #653817",
"*.	c #744A25",
"=.	c #56341A",
"-.	c #9A7B57",
";.	c #5C391E",
">.	c #4E2C14",
",.	c #462813",
"'.	c #826142",
").	c #603717",
"!.	c #683B1A",
"~.	c #462611",
"{.	c #4B2A12",
"].	c #714622",
"^.	c #5F3C1E",
"/.	c #6B4A2F",
"(.	c #806143",
"_.	c #A3866A",
":.	c #744E2E",
"<.	c #73451F",
"[.	c #543016",
"}.	c #6C411D",
"|.	c #623A1B",
"1.	c #462510",
"2.	c #572E13",
"3.	c #2D1D11",
"4.	c #946A41",
"5.	c #795434",
"6.	c #503118",
"7.	c #643A1C",
"8.	c #5B3316",
"9.	c #5A3216",
"0.	c #422512",
"a.	c #623817",
"b.	c #683C1A",
"c.	c #4E2911",
"d.	c #613415",
"e.	c #745534",
"f.	c #673D1B",
"g.	c #734B2B",
"h.	c #806B56",
"i.	c #715E4B",
"j.	c #3C2110",
"k.	c #8D6E4F",
"l.	c #684C33",
"m.	c #49260E",
"n.	c #4C2811",
"o.	c #5A3014",
"p.	c #795C3D",
"q.	c #84613D",
"r.	c #4F3116",
"s.	c #926D4C",
"t.	c #3E2511",
"u.	c #462610",
"v.	c #90663D",
"w.	c #583519",
"x.	c #593011",
"y.	c #673C1B",
"z.	c #4A2912",
"A.	c #502C13",
"B.	c #29170D",
"C.	c #5F3A1B",
"D.	c #704F30",
"E.	c #4A2B13",
"F.	c #684624",
"G.	c #502B11",
"H.	c #A88862",
"I.	c #3E2310",
"J.	c #774F2F",
"K.	c #845C3D",
"L.	c #4B2911",
"M.	c #4E2C13",
"N.	c #5C3C20",
"O.	c #6B5139",
"P.	c #8C7150",
"Q.	c #705134",
"R.	c #876D53",
"S.	c #AF8F6A",
"T.	c #542F15",
"U.	c #7C5E42",
"V.	c #845833",
"W.	c #402310",
"X.	c #502D13",
"Y.	c #916337",
"Z.	c #90765C",
"`.	c #735336",
" +	c #6B411E",
".+	c #61391B",
"++	c #4B2A11",
"@+	c #9A8062",
"#+	c #452913",
"$+	c #573A1F",
"%+	c #774822",
"&+	c #8F7559",
"*+	c #796650",
"=+	c #93785B",
"-+	c #5D442D",
";+	c #92714D",
">+	c #675645",
",+	c #6C4A31",
"'+	c #4C2B13",
")+	c #5E3F22",
"!+	c #734520",
"~+	c #492711",
"{+	c #593115",
"]+	c #332215",
"^+	c #887761",
"/+	c #785E45",
"(+	c #806242",
"_+	c #5C3D22",
":+	c #855E3B",
"<+	c #5F3C23",
"[+	c #5C3416",
"}+	c #67411F",
"|+	c #764721",
"1+	c #3B2110",
"2+	c #6D5035",
"3+	c #A78A68",
"4+	c #6D573F",
"5+	c #755A3F",
"6+	c #745537",
"7+	c #4D2A13",
"8+	c #6C503B",
"9+	c #78614D",
"0+	c #3C2211",
"a+	c #4D2910",
"b+	c #633718",
"c+	c #3A2010",
"d+	c #542E13",
"e+	c #946F4A",
"f+	c #7B4B23",
"g+	c #785435",
"h+	c #432611",
"i+	c #724422",
"j+	c #886444",
"k+	c #775A3C",
"l+	c #2A180C",
"m+	c #563014",
"n+	c #653918",
"o+	c #412210",
"p+	c #522C12",
"q+	c #5B3618",
"r+	c #5C3619",
"s+	c #603C1F",
"t+	c #73553A",
"u+	c #5F3719",
"v+	c #522E14",
"w+	c #51321A",
"x+	c #563920",
"y+	c #6A3F1C",
"z+	c #543116",
"A+	c #3C1F0F",
"B+	c #6A3714",
"C+	c #6D3C18",
"D+	c #5D3316",
"E+	c #6A3917",
"F+	c #5E3113",
"G+	c #653615",
"H+	c #643716",
"I+	c #562E14",
"J+	c #6A3F1B",
"K+	c #512F15",
"L+	c #422310",
"M+	c #512A11",
"N+	c #442410",
"O+	c #553417",
"P+	c #3A1E0F",
"Q+	c #4A2711",
"R+	c #361D0F",
"S+	c #5F3616",
"T+	c #563216",
"U+	c #472511",
"V+	c #090B0B",
"W+	c #7E5837",
"X+	c #7F5D42",
"Y+	c #93765B",
"Z+	c #806147",
"`+	c #352112",
" @	c #83552F",
".@	c #542F16",
"+@	c #693E1A",
"@@	c #553216",
"#@	c #603516",
"$@	c #744F2B",
"%@	c #543319",
"&@	c #725538",
"*@	c #937B65",
"=@	c #6E4C2E",
"-@	c #3F2614",
";@	c #865730",
">@	c #563117",
",@	c #5A3214",
"'@	c #613719",
")@	c #492611",
"!@	c #512E14",
"~@	c #93704F",
"{@	c #5C4734",
"]@	c #5C3618",
"^@	c #593516",
"/@	c #765A3E",
"(@	c #7F5F3C",
"_@	c #81471E",
":@	c #552F15",
"<@	c #573013",
"[@	c #4D2B13",
"}@	c #603416",
"|@	c #402E21",
"1@	c #916D49",
"2@	c #532F15",
"3@	c #694931",
"4@	c #6D421F",
"5@	c #412915",
"6@	c #5F3216",
"7@	c #563016",
"8@	c #3E220D",
"9@	c #693B1A",
"0@	c #482610",
"a@	c #4D2F18",
"b@	c #311B0E",
"c@	c #86674C",
"d@	c #A17853",
"e@	c #6D5138",
"f@	c #604026",
"g@	c #422612",
"h@	c #381C0A",
"i@	c #512B14",
"j@	c #472611",
"k@	c #4D2C13",
"l@	c #6D3D1A",
"m@	c #533218",
"n@	c #4B2A14",
"o@	c #462814",
"p@	c #673B1A",
"q@	c #2C180C",
"r@	c #886546",
"s@	c #4D2B14",
"t@	c #261206",
"u@	c #3E2512",
"v@	c #432310",
"w@	c #562E12",
"x@	c #806C55",
"y@	c #8B7B65",
"z@	c #96856E",
"A@	c #9C866F",
"B@	c #94836D",
"C@	c #8F765D",
"D@	c #623B1D",
"E@	c #4D2C15",
"F@	c #251106",
"G@	c #331A0E",
"H@	c #532C12",
"I@	c #593014",
"J@	c #613617",
"K@	c #6F401D",
"L@	c #70411E",
"M@	c #6D3D1C",
"N@	c #6A3D1C",
"O@	c #703F1A",
"P@	c #533016",
"Q@	c #3E1F0A",
"R@	c #3F200E",
"S@	c #241209",
"T@	c #4C270E",
"U@	c #4C260E",
"V@	c #4D280F",
"W@	c #45240E",
"X@	c #552D11",
"Y@	c #371D0D",
"Z@	c #40220F",
"`@	c #41210D",
" #	c #3C200D",
"  . + @ # $ % & * = - ; ; - = * & % $ # @ + .   ",
"> , ' ) ! ~ { ] ^ / ( _ _ ( / ^ ] { ~ ! ) ' , > ",
": < [ } | 1 2 3 4 5 6 7 7 6 5 4 3 2 1 | } [ < : ",
"8 9 0 a b c d e f g h i i h g f e d c b a 0 9 8 ",
"j k l m n o p q r s t u u t s r q p o n m l k j ",
"v w x y z A B C D E F G G F E D C B A z y x w v ",
"H I J K L M N O P Q R S S R Q P O N M L K J I H ",
"T U V W X Y Z `  ...+.@.@.+... .` Z Y X W V U T ",
"#.$.%.&.*.=.-.;.>.,.'.6 6 '.,.>.;.-.=.*.&.%.$.#.",
").!.~.{.].^./.(._.:.<.[.[.<.:._.(./.^.].{.~.!.).",
"}.|.1.2.3.4.5.6.7.8.9.0.0.9.8.7.6.5.4.3.2.1.|.}.",
"a.b.c.d.e.f.g.h.i.j.k.l.l.k.j.i.h.g.f.e.d.c.b.a.",
"m.!.n.o.p.q.r.s.t.u.v.w.w.v.u.t.s.r.q.p.o.n.!.m.",
"x.y.z.A.B.C.D.E.F.G.H.I.I.H.G.F.E.D.C.B.A.z.y.x.",
"J.K.L.M.N.O.P.Q.R.b.S.T.T.S.b.R.Q.P.O.N.M.L.K.J.",
"U.V.W.X.Y.Z.`. +.+++@+#+#+@+++.+ +`.Z.Y.X.W.V.U.",
"$+%+} X.&+*+=+-+;+>+,+'+'+,+>+;+-+=+*+&+X.} %+$+",
")+!+~+{+]+^+/+(+_+:+<+[+[+<+:+_+(+/+^+]+{+~+!+)+",
"}+|+1+2+3+4+5+6+7+8+9+0+0+9+8+7+6+5+4+3+2+1+|+}+",
"a+b+c+d+e+f+g+h+i+j+k+l+l+k+j+i+h+g+f+e+d+c+b+a+",
"m+n+o+p+q+r+s+t+u+v+w+x+x+w+v+u+t+s+r+q+p+o+n+m+",
"y+z+A+B+C+D+E+F+G+H+I+@.@.I+H+G+F+E+D+C+B+A+z+y+",
"J+K+L+M+N+O+P+Q+%.R+S+v+v+S+R+%.Q+P+O+N+M+L+K+J+",
"J+T+U+T.V+W+X+Y+Z+`+ @.@.@ @`+Z+Y+X+W+V+T.U+T+J+",
"+@@@0 #@$@%@&@*@=@-@;@>@>@;@-@=@*@&@%@$@#@0 @@+@",
",@'@)@!@~@{@]@^@/@(@_@:@:@_@(@/@^@]@{@~@!@)@'@,@",
"<@[@n.}@|@1@2@3@4@5@6@7@7@6@5@4@3@2@1@|@}@n.[@<@",
"8@9@0@M.#@a@b@c@d@e@f@g@g@f@e@d@c@b@a@#@M.0@9@8@",
"h@i@j@k@l@m@n@o@p@q@r@s@s@r@q@p@o@n@m@l@k@j@i@h@",
"t@u@v@w@x@y@z@A@B@C@D@E@E@D@C@B@A@z@y@x@w@v@u@t@",
"F@G G@H@I@J@K@L@M@N@O@P@P@O@N@M@L@K@J@I@H@G@G F@",
"Q@R@S@T@U@V@W@X@Y@Z@`@ # #`@Z@Y@X@W@V@U@T@S@R@Q@"};
